
{
    "header": {
      "PPQ": 96,
      "bpm": 140.00014000014,
      "timeSignature": [
        4,
        4
      ],
      "name": ""
    },
    "tempo": [
      {
        "absoluteTime": 0,
        "seconds": 0,
        "bpm": 140.00014000014
      }
    ],
    "timeSignature": [
      {
        "absoluteTime": 0,
        "seconds": 0,
        "numerator": 4,
        "denominator": 2,
        "click": 24,
        "notesQ": 8
      }
    ],
    "startTime": 0,
    "duration": 27.42854399999998,
    "tracks": [
      {
        "startTime": 0,
        "duration": 0,
        "length": 0,
        "notes": [],
        "controlChanges": {},
        "id": 0
      },
      {
        "startTime": 0,
        "duration": 27.42854399999998,
        "length": 557,
        "notes": [
          {
            "name": "E2",
            "midi": 40,
            "time": 0,
            "velocity": 0.7874015748031497,
            "duration": 0.21428550000000002
          },
          {
            "name": "E2",
            "midi": 40,
            "time": 0.21428550000000002,
            "velocity": 0.7874015748031497,
            "duration": 0.0714285
          },
          {
            "name": "E3",
            "midi": 52,
            "time": 0.21428550000000002,
            "velocity": 0.7874015748031497,
            "duration": 0.0714285
          },
          {
            "name": "D#4",
            "midi": 63,
            "time": 0.21428550000000002,
            "velocity": 0.7874015748031497,
            "duration": 0.0714285
          },
          {
            "name": "B3",
            "midi": 59,
            "time": 0.21428550000000002,
            "velocity": 0.7874015748031497,
            "duration": 0.0714285
          },
          {
            "name": "G#3",
            "midi": 56,
            "time": 0.21428550000000002,
            "velocity": 0.7874015748031497,
            "duration": 0.0714285
          },
          {
            "name": "E2",
            "midi": 40,
            "time": 0.32142825,
            "velocity": 0.7874015748031497,
            "duration": 0.08035706250000002
          },
          {
            "name": "E2",
            "midi": 40,
            "time": 0.53571375,
            "velocity": 0.7874015748031497,
            "duration": 0.08035706249999996
          },
          {
            "name": "E3",
            "midi": 52,
            "time": 0.6428564999999999,
            "velocity": 0.7874015748031497,
            "duration": 0.08035706249999996
          },
          {
            "name": "D#2",
            "midi": 39,
            "time": 0.7499992499999999,
            "velocity": 0.7874015748031497,
            "duration": 0.18749981250000003
          },
          {
            "name": "F#3",
            "midi": 54,
            "time": 0.7499992499999999,
            "velocity": 0.7874015748031497,
            "duration": 0.17857125000000007
          },
          {
            "name": "A#3",
            "midi": 58,
            "time": 0.7499992499999999,
            "velocity": 0.7874015748031497,
            "duration": 0.17857125000000007
          },
          {
            "name": "C#4",
            "midi": 61,
            "time": 0.7499992499999999,
            "velocity": 0.7874015748031497,
            "duration": 0.17857125000000007
          },
          {
            "name": "D#3",
            "midi": 51,
            "time": 0.7499992499999999,
            "velocity": 0.7874015748031497,
            "duration": 0.17857125000000007
          },
          {
            "name": "D#3",
            "midi": 51,
            "time": 0.9642847499999999,
            "velocity": 0.7874015748031497,
            "duration": 0.17857124999999996
          },
          {
            "name": "C#4",
            "midi": 61,
            "time": 0.9642847499999999,
            "velocity": 0.7874015748031497,
            "duration": 0.17857124999999996
          },
          {
            "name": "A#3",
            "midi": 58,
            "time": 0.9642847499999999,
            "velocity": 0.7874015748031497,
            "duration": 0.17857124999999996
          },
          {
            "name": "F#3",
            "midi": 54,
            "time": 0.9642847499999999,
            "velocity": 0.7874015748031497,
            "duration": 0.17857124999999996
          },
          {
            "name": "D#2",
            "midi": 39,
            "time": 0.9642847499999999,
            "velocity": 0.7874015748031497,
            "duration": 0.18749981249999992
          },
          {
            "name": "D#2",
            "midi": 39,
            "time": 1.2857129999999999,
            "velocity": 0.7874015748031497,
            "duration": 0.10714274999999995
          },
          {
            "name": "F#3",
            "midi": 54,
            "time": 1.2857129999999999,
            "velocity": 0.7874015748031497,
            "duration": 0.17857125000000007
          },
          {
            "name": "A#3",
            "midi": 58,
            "time": 1.2857129999999999,
            "velocity": 0.7874015748031497,
            "duration": 0.17857125000000007
          },
          {
            "name": "C#4",
            "midi": 61,
            "time": 1.2857129999999999,
            "velocity": 0.7874015748031497,
            "duration": 0.17857125000000007
          },
          {
            "name": "D#3",
            "midi": 51,
            "time": 1.2857129999999999,
            "velocity": 0.7874015748031497,
            "duration": 0.17857125000000007
          },
          {
            "name": "D#2",
            "midi": 39,
            "time": 1.4999985,
            "velocity": 0.7874015748031497,
            "duration": 0.10714274999999995
          },
          {
            "name": "F#3",
            "midi": 54,
            "time": 1.4999985,
            "velocity": 0.7874015748031497,
            "duration": 0.17857124999999985
          },
          {
            "name": "A#3",
            "midi": 58,
            "time": 1.4999985,
            "velocity": 0.7874015748031497,
            "duration": 0.17857124999999985
          },
          {
            "name": "C#4",
            "midi": 61,
            "time": 1.4999985,
            "velocity": 0.7874015748031497,
            "duration": 0.17857124999999985
          },
          {
            "name": "D#3",
            "midi": 51,
            "time": 1.4999985,
            "velocity": 0.7874015748031497,
            "duration": 0.17857124999999985
          },
          {
            "name": "G#1",
            "midi": 32,
            "time": 1.714284,
            "velocity": 0.7874015748031497,
            "duration": 0.21428550000000013
          },
          {
            "name": "B3",
            "midi": 59,
            "time": 1.9285695,
            "velocity": 0.7874015748031497,
            "duration": 0.07142850000000012
          },
          {
            "name": "F#3",
            "midi": 54,
            "time": 1.9285695,
            "velocity": 0.7874015748031497,
            "duration": 0.07142850000000012
          },
          {
            "name": "D#3",
            "midi": 51,
            "time": 1.9285695,
            "velocity": 0.7874015748031497,
            "duration": 0.07142850000000012
          },
          {
            "name": "G#3",
            "midi": 56,
            "time": 1.9285695,
            "velocity": 0.7874015748031497,
            "duration": 0.07142850000000012
          },
          {
            "name": "G#1",
            "midi": 32,
            "time": 1.9285695,
            "velocity": 0.7874015748031497,
            "duration": 0.07142850000000012
          },
          {
            "name": "G#1",
            "midi": 32,
            "time": 2.03571225,
            "velocity": 0.7874015748031497,
            "duration": 0.08035706250000008
          },
          {
            "name": "B3",
            "midi": 59,
            "time": 2.24999775,
            "velocity": 0.7874015748031497,
            "duration": 0.07142850000000012
          },
          {
            "name": "F#3",
            "midi": 54,
            "time": 2.24999775,
            "velocity": 0.7874015748031497,
            "duration": 0.07142850000000012
          },
          {
            "name": "D#3",
            "midi": 51,
            "time": 2.24999775,
            "velocity": 0.7874015748031497,
            "duration": 0.07142850000000012
          },
          {
            "name": "G#3",
            "midi": 56,
            "time": 2.24999775,
            "velocity": 0.7874015748031497,
            "duration": 0.07142850000000012
          },
          {
            "name": "G#1",
            "midi": 32,
            "time": 2.24999775,
            "velocity": 0.7874015748031497,
            "duration": 0.08035706250000008
          },
          {
            "name": "B2",
            "midi": 47,
            "time": 2.3571405,
            "velocity": 0.7874015748031497,
            "duration": 0.08035706250000008
          },
          {
            "name": "B2",
            "midi": 47,
            "time": 2.46428325,
            "velocity": 0.7874015748031497,
            "duration": 0.2946425625
          },
          {
            "name": "A3",
            "midi": 57,
            "time": 2.46428325,
            "velocity": 0.7874015748031497,
            "duration": 0.2946425625
          },
          {
            "name": "F#3",
            "midi": 54,
            "time": 2.46428325,
            "velocity": 0.7874015748031497,
            "duration": 0.2946425625
          },
          {
            "name": "D#3",
            "midi": 51,
            "time": 2.46428325,
            "velocity": 0.7874015748031497,
            "duration": 0.2946425625
          },
          {
            "name": "B1",
            "midi": 35,
            "time": 2.46428325,
            "velocity": 0.7874015748031497,
            "duration": 0.2946425625
          },
          {
            "name": "B2",
            "midi": 47,
            "time": 2.7857114999999997,
            "velocity": 0.7874015748031497,
            "duration": 0.0982141875
          },
          {
            "name": "A3",
            "midi": 57,
            "time": 2.7857114999999997,
            "velocity": 0.7874015748031497,
            "duration": 0.0982141875
          },
          {
            "name": "F#3",
            "midi": 54,
            "time": 2.7857114999999997,
            "velocity": 0.7874015748031497,
            "duration": 0.0982141875
          },
          {
            "name": "D#3",
            "midi": 51,
            "time": 2.7857114999999997,
            "velocity": 0.7874015748031497,
            "duration": 0.0982141875
          },
          {
            "name": "B1",
            "midi": 35,
            "time": 2.7857114999999997,
            "velocity": 0.7874015748031497,
            "duration": 0.0982141875
          },
          {
            "name": "B1",
            "midi": 35,
            "time": 2.9999969999999996,
            "velocity": 0.7874015748031497,
            "duration": 0.18749981250000003
          },
          {
            "name": "D#3",
            "midi": 51,
            "time": 2.9999969999999996,
            "velocity": 0.7874015748031497,
            "duration": 0.18749981250000003
          },
          {
            "name": "F#3",
            "midi": 54,
            "time": 2.9999969999999996,
            "velocity": 0.7874015748031497,
            "duration": 0.18749981250000003
          },
          {
            "name": "A3",
            "midi": 57,
            "time": 2.9999969999999996,
            "velocity": 0.7874015748031497,
            "duration": 0.18749981250000003
          },
          {
            "name": "B2",
            "midi": 47,
            "time": 2.9999969999999996,
            "velocity": 0.7874015748031497,
            "duration": 0.18749981250000003
          },
          {
            "name": "B1",
            "midi": 35,
            "time": 3.2142824999999995,
            "velocity": 0.7874015748031497,
            "duration": 0.18749981250000003
          },
          {
            "name": "D#3",
            "midi": 51,
            "time": 3.2142824999999995,
            "velocity": 0.7874015748031497,
            "duration": 0.18749981250000003
          },
          {
            "name": "F#3",
            "midi": 54,
            "time": 3.2142824999999995,
            "velocity": 0.7874015748031497,
            "duration": 0.18749981250000003
          },
          {
            "name": "A3",
            "midi": 57,
            "time": 3.2142824999999995,
            "velocity": 0.7874015748031497,
            "duration": 0.18749981250000003
          },
          {
            "name": "B2",
            "midi": 47,
            "time": 3.2142824999999995,
            "velocity": 0.7874015748031497,
            "duration": 0.18749981250000003
          },
          {
            "name": "E2",
            "midi": 40,
            "time": 3.4285679999999994,
            "velocity": 0.7874015748031497,
            "duration": 0.2142854999999999
          },
          {
            "name": "E2",
            "midi": 40,
            "time": 3.6428534999999993,
            "velocity": 0.7874015748031497,
            "duration": 0.07142850000000012
          },
          {
            "name": "G#3",
            "midi": 56,
            "time": 3.6428534999999993,
            "velocity": 0.7874015748031497,
            "duration": 0.07142850000000012
          },
          {
            "name": "B3",
            "midi": 59,
            "time": 3.6428534999999993,
            "velocity": 0.7874015748031497,
            "duration": 0.07142850000000012
          },
          {
            "name": "D#4",
            "midi": 63,
            "time": 3.6428534999999993,
            "velocity": 0.7874015748031497,
            "duration": 0.07142850000000012
          },
          {
            "name": "E3",
            "midi": 52,
            "time": 3.6428534999999993,
            "velocity": 0.7874015748031497,
            "duration": 0.07142850000000012
          },
          {
            "name": "E2",
            "midi": 40,
            "time": 3.7499962499999993,
            "velocity": 0.7874015748031497,
            "duration": 0.08035706250000008
          },
          {
            "name": "G#3",
            "midi": 56,
            "time": 3.7499962499999993,
            "velocity": 0.7874015748031497,
            "duration": 0.07142850000000012
          },
          {
            "name": "B3",
            "midi": 59,
            "time": 3.7499962499999993,
            "velocity": 0.7874015748031497,
            "duration": 0.07142850000000012
          },
          {
            "name": "D#4",
            "midi": 63,
            "time": 3.7499962499999993,
            "velocity": 0.7874015748031497,
            "duration": 0.07142850000000012
          },
          {
            "name": "E3",
            "midi": 52,
            "time": 3.7499962499999993,
            "velocity": 0.7874015748031497,
            "duration": 0.07142850000000012
          },
          {
            "name": "E2",
            "midi": 40,
            "time": 3.964281749999999,
            "velocity": 0.7874015748031497,
            "duration": 0.08035706250000052
          },
          {
            "name": "E3",
            "midi": 52,
            "time": 3.964281749999999,
            "velocity": 0.7874015748031497,
            "duration": 0.07142850000000012
          },
          {
            "name": "D#4",
            "midi": 63,
            "time": 3.964281749999999,
            "velocity": 0.7874015748031497,
            "duration": 0.07142850000000012
          },
          {
            "name": "B3",
            "midi": 59,
            "time": 3.964281749999999,
            "velocity": 0.7874015748031497,
            "duration": 0.07142850000000012
          },
          {
            "name": "G#3",
            "midi": 56,
            "time": 3.964281749999999,
            "velocity": 0.7874015748031497,
            "duration": 0.07142850000000012
          },
          {
            "name": "E3",
            "midi": 52,
            "time": 4.0714245,
            "velocity": 0.7874015748031497,
            "duration": 0.08035706250000008
          },
          {
            "name": "D#2",
            "midi": 39,
            "time": 4.17856725,
            "velocity": 0.7874015748031497,
            "duration": 0.18749981250000047
          },
          {
            "name": "F#3",
            "midi": 54,
            "time": 4.17856725,
            "velocity": 0.7874015748031497,
            "duration": 0.17857125000000007
          },
          {
            "name": "A#3",
            "midi": 58,
            "time": 4.17856725,
            "velocity": 0.7874015748031497,
            "duration": 0.17857125000000007
          },
          {
            "name": "C#4",
            "midi": 61,
            "time": 4.17856725,
            "velocity": 0.7874015748031497,
            "duration": 0.17857125000000007
          },
          {
            "name": "D#3",
            "midi": 51,
            "time": 4.17856725,
            "velocity": 0.7874015748031497,
            "duration": 0.17857125000000007
          },
          {
            "name": "D#2",
            "midi": 39,
            "time": 4.392852750000001,
            "velocity": 0.7874015748031497,
            "duration": 0.08035706250000008
          },
          {
            "name": "F#3",
            "midi": 54,
            "time": 4.392852750000001,
            "velocity": 0.7874015748031497,
            "duration": 0.07142849999999967
          },
          {
            "name": "A#3",
            "midi": 58,
            "time": 4.392852750000001,
            "velocity": 0.7874015748031497,
            "duration": 0.07142849999999967
          },
          {
            "name": "C#4",
            "midi": 61,
            "time": 4.392852750000001,
            "velocity": 0.7874015748031497,
            "duration": 0.07142849999999967
          },
          {
            "name": "D#3",
            "midi": 51,
            "time": 4.392852750000001,
            "velocity": 0.7874015748031497,
            "duration": 0.07142849999999967
          },
          {
            "name": "D#3",
            "midi": 51,
            "time": 4.499995500000002,
            "velocity": 0.7874015748031497,
            "duration": 0.07142849999999967
          },
          {
            "name": "C#4",
            "midi": 61,
            "time": 4.499995500000002,
            "velocity": 0.7874015748031497,
            "duration": 0.07142849999999967
          },
          {
            "name": "A#3",
            "midi": 58,
            "time": 4.499995500000002,
            "velocity": 0.7874015748031497,
            "duration": 0.07142849999999967
          },
          {
            "name": "F#3",
            "midi": 54,
            "time": 4.499995500000002,
            "velocity": 0.7874015748031497,
            "duration": 0.07142849999999967
          },
          {
            "name": "D#2",
            "midi": 39,
            "time": 4.499995500000002,
            "velocity": 0.7874015748031497,
            "duration": 0.08035706250000008
          },
          {
            "name": "D#3",
            "midi": 51,
            "time": 4.7142810000000015,
            "velocity": 0.7874015748031497,
            "duration": 0.17857125000000007
          },
          {
            "name": "C#4",
            "midi": 61,
            "time": 4.7142810000000015,
            "velocity": 0.7874015748031497,
            "duration": 0.17857125000000007
          },
          {
            "name": "A#3",
            "midi": 58,
            "time": 4.7142810000000015,
            "velocity": 0.7874015748031497,
            "duration": 0.17857125000000007
          },
          {
            "name": "F#3",
            "midi": 54,
            "time": 4.7142810000000015,
            "velocity": 0.7874015748031497,
            "duration": 0.17857125000000007
          },
          {
            "name": "D#2",
            "midi": 39,
            "time": 4.7142810000000015,
            "velocity": 0.7874015748031497,
            "duration": 0.1071427500000004
          },
          {
            "name": "D#3",
            "midi": 51,
            "time": 4.928566500000001,
            "velocity": 0.7874015748031497,
            "duration": 0.17857125000000007
          },
          {
            "name": "C#4",
            "midi": 61,
            "time": 4.928566500000001,
            "velocity": 0.7874015748031497,
            "duration": 0.17857125000000007
          },
          {
            "name": "A#3",
            "midi": 58,
            "time": 4.928566500000001,
            "velocity": 0.7874015748031497,
            "duration": 0.17857125000000007
          },
          {
            "name": "F#3",
            "midi": 54,
            "time": 4.928566500000001,
            "velocity": 0.7874015748031497,
            "duration": 0.17857125000000007
          },
          {
            "name": "D#2",
            "midi": 39,
            "time": 4.928566500000001,
            "velocity": 0.7874015748031497,
            "duration": 0.1071427500000004
          },
          {
            "name": "G#1",
            "midi": 32,
            "time": 5.142852000000001,
            "velocity": 0.7874015748031497,
            "duration": 0.2142854999999999
          },
          {
            "name": "G#1",
            "midi": 32,
            "time": 5.357137500000001,
            "velocity": 0.7874015748031497,
            "duration": 0.07142849999999967
          },
          {
            "name": "G#3",
            "midi": 56,
            "time": 5.357137500000001,
            "velocity": 0.7874015748031497,
            "duration": 0.07142849999999967
          },
          {
            "name": "D#3",
            "midi": 51,
            "time": 5.357137500000001,
            "velocity": 0.7874015748031497,
            "duration": 0.07142849999999967
          },
          {
            "name": "F#3",
            "midi": 54,
            "time": 5.357137500000001,
            "velocity": 0.7874015748031497,
            "duration": 0.07142849999999967
          },
          {
            "name": "B3",
            "midi": 59,
            "time": 5.357137500000001,
            "velocity": 0.7874015748031497,
            "duration": 0.07142849999999967
          },
          {
            "name": "G#1",
            "midi": 32,
            "time": 5.464280250000001,
            "velocity": 0.7874015748031497,
            "duration": 0.08035706250000008
          },
          {
            "name": "G#1",
            "midi": 32,
            "time": 5.678565750000001,
            "velocity": 0.7874015748031497,
            "duration": 0.08035706250000008
          },
          {
            "name": "B3",
            "midi": 59,
            "time": 5.678565750000001,
            "velocity": 0.7874015748031497,
            "duration": 0.07142849999999967
          },
          {
            "name": "F#3",
            "midi": 54,
            "time": 5.678565750000001,
            "velocity": 0.7874015748031497,
            "duration": 0.07142849999999967
          },
          {
            "name": "D#3",
            "midi": 51,
            "time": 5.678565750000001,
            "velocity": 0.7874015748031497,
            "duration": 0.07142849999999967
          },
          {
            "name": "G#3",
            "midi": 56,
            "time": 5.678565750000001,
            "velocity": 0.7874015748031497,
            "duration": 0.07142849999999967
          },
          {
            "name": "B2",
            "midi": 47,
            "time": 5.785708500000001,
            "velocity": 0.7874015748031497,
            "duration": 0.08035706250000008
          },
          {
            "name": "D#3",
            "midi": 51,
            "time": 5.785708500000001,
            "velocity": 0.7874015748031497,
            "duration": 0.06249993750000016
          },
          {
            "name": "F#3",
            "midi": 54,
            "time": 5.785708500000001,
            "velocity": 0.7874015748031497,
            "duration": 0.06249993750000016
          },
          {
            "name": "A3",
            "midi": 57,
            "time": 5.785708500000001,
            "velocity": 0.7874015748031497,
            "duration": 0.06249993750000016
          },
          {
            "name": "B2",
            "midi": 47,
            "time": 5.892851250000001,
            "velocity": 0.7874015748031497,
            "duration": 0.2946425625
          },
          {
            "name": "B1",
            "midi": 35,
            "time": 5.892851250000001,
            "velocity": 0.7874015748031497,
            "duration": 0.2946425625
          },
          {
            "name": "A3",
            "midi": 57,
            "time": 5.892851250000001,
            "velocity": 0.7874015748031497,
            "duration": 0.2946425625
          },
          {
            "name": "F#3",
            "midi": 54,
            "time": 5.892851250000001,
            "velocity": 0.7874015748031497,
            "duration": 0.2946425625
          },
          {
            "name": "D#3",
            "midi": 51,
            "time": 5.892851250000001,
            "velocity": 0.7874015748031497,
            "duration": 0.2946425625
          },
          {
            "name": "B1",
            "midi": 35,
            "time": 6.214279500000002,
            "velocity": 0.7874015748031497,
            "duration": 0.0982141875
          },
          {
            "name": "D#3",
            "midi": 51,
            "time": 6.214279500000002,
            "velocity": 0.7874015748031497,
            "duration": 0.0982141875
          },
          {
            "name": "F#3",
            "midi": 54,
            "time": 6.214279500000002,
            "velocity": 0.7874015748031497,
            "duration": 0.0982141875
          },
          {
            "name": "A3",
            "midi": 57,
            "time": 6.214279500000002,
            "velocity": 0.7874015748031497,
            "duration": 0.0982141875
          },
          {
            "name": "B2",
            "midi": 47,
            "time": 6.214279500000002,
            "velocity": 0.7874015748031497,
            "duration": 0.0982141875
          },
          {
            "name": "B2",
            "midi": 47,
            "time": 6.428565000000002,
            "velocity": 0.7874015748031497,
            "duration": 0.18749981249999959
          },
          {
            "name": "A3",
            "midi": 57,
            "time": 6.428565000000002,
            "velocity": 0.7874015748031497,
            "duration": 0.18749981249999959
          },
          {
            "name": "F#3",
            "midi": 54,
            "time": 6.428565000000002,
            "velocity": 0.7874015748031497,
            "duration": 0.18749981249999959
          },
          {
            "name": "D#3",
            "midi": 51,
            "time": 6.428565000000002,
            "velocity": 0.7874015748031497,
            "duration": 0.18749981249999959
          },
          {
            "name": "B1",
            "midi": 35,
            "time": 6.428565000000002,
            "velocity": 0.7874015748031497,
            "duration": 0.18749981249999959
          },
          {
            "name": "B1",
            "midi": 35,
            "time": 6.6428505000000015,
            "velocity": 0.7874015748031497,
            "duration": 0.18749981250000047
          },
          {
            "name": "D#3",
            "midi": 51,
            "time": 6.6428505000000015,
            "velocity": 0.7874015748031497,
            "duration": 0.18749981250000047
          },
          {
            "name": "F#3",
            "midi": 54,
            "time": 6.6428505000000015,
            "velocity": 0.7874015748031497,
            "duration": 0.18749981250000047
          },
          {
            "name": "A3",
            "midi": 57,
            "time": 6.6428505000000015,
            "velocity": 0.7874015748031497,
            "duration": 0.18749981250000047
          },
          {
            "name": "B2",
            "midi": 47,
            "time": 6.6428505000000015,
            "velocity": 0.7874015748031497,
            "duration": 0.18749981250000047
          },
          {
            "name": "E2",
            "midi": 40,
            "time": 6.857136000000002,
            "velocity": 0.7874015748031497,
            "duration": 0.2142854999999999
          },
          {
            "name": "E2",
            "midi": 40,
            "time": 7.071421500000002,
            "velocity": 0.7874015748031497,
            "duration": 0.07142849999999967
          },
          {
            "name": "E3",
            "midi": 52,
            "time": 7.071421500000002,
            "velocity": 0.7874015748031497,
            "duration": 0.07142849999999967
          },
          {
            "name": "D#4",
            "midi": 63,
            "time": 7.071421500000002,
            "velocity": 0.7874015748031497,
            "duration": 0.07142849999999967
          },
          {
            "name": "B3",
            "midi": 59,
            "time": 7.071421500000002,
            "velocity": 0.7874015748031497,
            "duration": 0.07142849999999967
          },
          {
            "name": "G#3",
            "midi": 56,
            "time": 7.071421500000002,
            "velocity": 0.7874015748031497,
            "duration": 0.07142849999999967
          },
          {
            "name": "E2",
            "midi": 40,
            "time": 7.178564250000002,
            "velocity": 0.7874015748031497,
            "duration": 0.08035706250000008
          },
          {
            "name": "E2",
            "midi": 40,
            "time": 7.392849750000002,
            "velocity": 0.7874015748031497,
            "duration": 0.08035706250000008
          },
          {
            "name": "E3",
            "midi": 52,
            "time": 7.499992500000002,
            "velocity": 0.7874015748031497,
            "duration": 0.08035706250000008
          },
          {
            "name": "D#3",
            "midi": 51,
            "time": 7.6071352500000025,
            "velocity": 0.7874015748031497,
            "duration": 0.17857125000000007
          },
          {
            "name": "C#4",
            "midi": 61,
            "time": 7.6071352500000025,
            "velocity": 0.7874015748031497,
            "duration": 0.17857125000000007
          },
          {
            "name": "A#3",
            "midi": 58,
            "time": 7.6071352500000025,
            "velocity": 0.7874015748031497,
            "duration": 0.17857125000000007
          },
          {
            "name": "F#3",
            "midi": 54,
            "time": 7.6071352500000025,
            "velocity": 0.7874015748031497,
            "duration": 0.17857125000000007
          },
          {
            "name": "D#2",
            "midi": 39,
            "time": 7.6071352500000025,
            "velocity": 0.7874015748031497,
            "duration": 0.18749981250000047
          },
          {
            "name": "D#3",
            "midi": 51,
            "time": 7.821420750000003,
            "velocity": 0.7874015748031497,
            "duration": 0.17857125000000007
          },
          {
            "name": "C#4",
            "midi": 61,
            "time": 7.821420750000003,
            "velocity": 0.7874015748031497,
            "duration": 0.17857125000000007
          },
          {
            "name": "A#3",
            "midi": 58,
            "time": 7.821420750000003,
            "velocity": 0.7874015748031497,
            "duration": 0.17857125000000007
          },
          {
            "name": "F#3",
            "midi": 54,
            "time": 7.821420750000003,
            "velocity": 0.7874015748031497,
            "duration": 0.17857125000000007
          },
          {
            "name": "D#2",
            "midi": 39,
            "time": 7.821420750000003,
            "velocity": 0.7874015748031497,
            "duration": 0.18749981250000047
          },
          {
            "name": "D#2",
            "midi": 39,
            "time": 8.142849000000004,
            "velocity": 0.7874015748031497,
            "duration": 0.10714274999999951
          },
          {
            "name": "F#3",
            "midi": 54,
            "time": 8.142849000000004,
            "velocity": 0.7874015748031497,
            "duration": 0.17857124999999918
          },
          {
            "name": "A#3",
            "midi": 58,
            "time": 8.142849000000004,
            "velocity": 0.7874015748031497,
            "duration": 0.17857124999999918
          },
          {
            "name": "C#4",
            "midi": 61,
            "time": 8.142849000000004,
            "velocity": 0.7874015748031497,
            "duration": 0.17857124999999918
          },
          {
            "name": "D#3",
            "midi": 51,
            "time": 8.142849000000004,
            "velocity": 0.7874015748031497,
            "duration": 0.17857124999999918
          },
          {
            "name": "D#3",
            "midi": 51,
            "time": 8.357134500000003,
            "velocity": 0.7874015748031497,
            "duration": 0.17857124999999918
          },
          {
            "name": "C#4",
            "midi": 61,
            "time": 8.357134500000003,
            "velocity": 0.7874015748031497,
            "duration": 0.17857124999999918
          },
          {
            "name": "A#3",
            "midi": 58,
            "time": 8.357134500000003,
            "velocity": 0.7874015748031497,
            "duration": 0.17857124999999918
          },
          {
            "name": "F#3",
            "midi": 54,
            "time": 8.357134500000003,
            "velocity": 0.7874015748031497,
            "duration": 0.17857124999999918
          },
          {
            "name": "D#2",
            "midi": 39,
            "time": 8.357134500000003,
            "velocity": 0.7874015748031497,
            "duration": 0.10714274999999951
          },
          {
            "name": "G#1",
            "midi": 32,
            "time": 8.571420000000002,
            "velocity": 0.7874015748031497,
            "duration": 0.2142855000000008
          },
          {
            "name": "G#1",
            "midi": 32,
            "time": 8.785705500000002,
            "velocity": 0.7874015748031497,
            "duration": 0.07142849999999967
          },
          {
            "name": "G#3",
            "midi": 56,
            "time": 8.785705500000002,
            "velocity": 0.7874015748031497,
            "duration": 0.07142849999999967
          },
          {
            "name": "D#3",
            "midi": 51,
            "time": 8.785705500000002,
            "velocity": 0.7874015748031497,
            "duration": 0.07142849999999967
          },
          {
            "name": "F#3",
            "midi": 54,
            "time": 8.785705500000002,
            "velocity": 0.7874015748031497,
            "duration": 0.07142849999999967
          },
          {
            "name": "B3",
            "midi": 59,
            "time": 8.785705500000002,
            "velocity": 0.7874015748031497,
            "duration": 0.07142849999999967
          },
          {
            "name": "G#1",
            "midi": 32,
            "time": 8.892848250000002,
            "velocity": 0.7874015748031497,
            "duration": 0.08035706249999919
          },
          {
            "name": "B3",
            "midi": 59,
            "time": 9.107133750000001,
            "velocity": 0.7874015748031497,
            "duration": 0.07142849999999967
          },
          {
            "name": "F#3",
            "midi": 54,
            "time": 9.107133750000001,
            "velocity": 0.7874015748031497,
            "duration": 0.07142849999999967
          },
          {
            "name": "D#3",
            "midi": 51,
            "time": 9.107133750000001,
            "velocity": 0.7874015748031497,
            "duration": 0.07142849999999967
          },
          {
            "name": "G#3",
            "midi": 56,
            "time": 9.107133750000001,
            "velocity": 0.7874015748031497,
            "duration": 0.07142849999999967
          },
          {
            "name": "G#1",
            "midi": 32,
            "time": 9.107133750000001,
            "velocity": 0.7874015748031497,
            "duration": 0.08035706249999919
          },
          {
            "name": "B2",
            "midi": 47,
            "time": 9.2142765,
            "velocity": 0.7874015748031497,
            "duration": 0.08035706249999919
          },
          {
            "name": "B2",
            "midi": 47,
            "time": 9.32141925,
            "velocity": 0.7874015748031497,
            "duration": 0.2946425625
          },
          {
            "name": "A3",
            "midi": 57,
            "time": 9.32141925,
            "velocity": 0.7874015748031497,
            "duration": 0.2946425625
          },
          {
            "name": "F#3",
            "midi": 54,
            "time": 9.32141925,
            "velocity": 0.7874015748031497,
            "duration": 0.2946425625
          },
          {
            "name": "D#3",
            "midi": 51,
            "time": 9.32141925,
            "velocity": 0.7874015748031497,
            "duration": 0.2946425625
          },
          {
            "name": "B1",
            "midi": 35,
            "time": 9.32141925,
            "velocity": 0.7874015748031497,
            "duration": 0.2946425625
          },
          {
            "name": "B2",
            "midi": 47,
            "time": 9.6428475,
            "velocity": 0.7874015748031497,
            "duration": 0.0982141875
          },
          {
            "name": "A3",
            "midi": 57,
            "time": 9.6428475,
            "velocity": 0.7874015748031497,
            "duration": 0.0982141875
          },
          {
            "name": "F#3",
            "midi": 54,
            "time": 9.6428475,
            "velocity": 0.7874015748031497,
            "duration": 0.0982141875
          },
          {
            "name": "D#3",
            "midi": 51,
            "time": 9.6428475,
            "velocity": 0.7874015748031497,
            "duration": 0.0982141875
          },
          {
            "name": "B1",
            "midi": 35,
            "time": 9.6428475,
            "velocity": 0.7874015748031497,
            "duration": 0.0982141875
          },
          {
            "name": "B1",
            "midi": 35,
            "time": 9.857133000000001,
            "velocity": 0.7874015748031497,
            "duration": 0.18749981250000047
          },
          {
            "name": "B2",
            "midi": 47,
            "time": 9.857133000000001,
            "velocity": 0.7874015748031497,
            "duration": 0.18749981250000047
          },
          {
            "name": "A3",
            "midi": 57,
            "time": 9.857133000000001,
            "velocity": 0.7874015748031497,
            "duration": 0.18749981250000047
          },
          {
            "name": "F#3",
            "midi": 54,
            "time": 9.857133000000001,
            "velocity": 0.7874015748031497,
            "duration": 0.18749981250000047
          },
          {
            "name": "D#3",
            "midi": 51,
            "time": 9.857133000000001,
            "velocity": 0.7874015748031497,
            "duration": 0.18749981250000047
          },
          {
            "name": "D#2",
            "midi": 39,
            "time": 10.071418500000002,
            "velocity": 0.7874015748031497,
            "duration": 0.18749981250000047
          },
          {
            "name": "D#3",
            "midi": 51,
            "time": 10.071418500000002,
            "velocity": 0.7874015748031497,
            "duration": 0.18749981250000047
          },
          {
            "name": "A3",
            "midi": 57,
            "time": 10.071418500000002,
            "velocity": 0.7874015748031497,
            "duration": 0.18749981250000047
          },
          {
            "name": "C#4",
            "midi": 61,
            "time": 10.071418500000002,
            "velocity": 0.7874015748031497,
            "duration": 0.18749981250000047
          },
          {
            "name": "F#3",
            "midi": 54,
            "time": 10.071418500000002,
            "velocity": 0.7874015748031497,
            "duration": 0.18749981250000047
          },
          {
            "name": "E3",
            "midi": 52,
            "time": 10.285704000000003,
            "velocity": 0.7874015748031497,
            "duration": 0.4285709999999998
          },
          {
            "name": "G#3",
            "midi": 56,
            "time": 10.285704000000003,
            "velocity": 0.7874015748031497,
            "duration": 0.4285709999999998
          },
          {
            "name": "B3",
            "midi": 59,
            "time": 10.285704000000003,
            "velocity": 0.7874015748031497,
            "duration": 0.4285709999999998
          },
          {
            "name": "D#4",
            "midi": 63,
            "time": 10.285704000000003,
            "velocity": 0.7874015748031497,
            "duration": 0.4285709999999998
          },
          {
            "name": "E2",
            "midi": 40,
            "time": 10.285704000000003,
            "velocity": 0.7874015748031497,
            "duration": 0.4285709999999998
          },
          {
            "name": "E3",
            "midi": 52,
            "time": 10.714275000000002,
            "velocity": 0.7874015748031497,
            "duration": 0.08928562500000048
          },
          {
            "name": "G#3",
            "midi": 56,
            "time": 10.714275000000002,
            "velocity": 0.7874015748031497,
            "duration": 0.08928562500000048
          },
          {
            "name": "B3",
            "midi": 59,
            "time": 10.714275000000002,
            "velocity": 0.7874015748031497,
            "duration": 0.08928562500000048
          },
          {
            "name": "D#4",
            "midi": 63,
            "time": 10.714275000000002,
            "velocity": 0.7874015748031497,
            "duration": 0.08928562500000048
          },
          {
            "name": "E2",
            "midi": 40,
            "time": 10.714275000000002,
            "velocity": 0.7874015748031497,
            "duration": 0.08928562500000048
          },
          {
            "name": "E3",
            "midi": 52,
            "time": 10.821417750000004,
            "velocity": 0.7874015748031497,
            "duration": 0.035714249999999836
          },
          {
            "name": "G#3",
            "midi": 56,
            "time": 10.821417750000004,
            "velocity": 0.7874015748031497,
            "duration": 0.035714249999999836
          },
          {
            "name": "B3",
            "midi": 59,
            "time": 10.821417750000004,
            "velocity": 0.7874015748031497,
            "duration": 0.035714249999999836
          },
          {
            "name": "D#4",
            "midi": 63,
            "time": 10.821417750000004,
            "velocity": 0.7874015748031497,
            "duration": 0.035714249999999836
          },
          {
            "name": "E2",
            "midi": 40,
            "time": 10.821417750000004,
            "velocity": 0.7874015748031497,
            "duration": 0.035714249999999836
          },
          {
            "name": "E3",
            "midi": 52,
            "time": 10.928560500000003,
            "velocity": 0.7874015748031497,
            "duration": 0.08928562500000048
          },
          {
            "name": "G#3",
            "midi": 56,
            "time": 10.928560500000003,
            "velocity": 0.7874015748031497,
            "duration": 0.08928562500000048
          },
          {
            "name": "B3",
            "midi": 59,
            "time": 10.928560500000003,
            "velocity": 0.7874015748031497,
            "duration": 0.08928562500000048
          },
          {
            "name": "D#4",
            "midi": 63,
            "time": 10.928560500000003,
            "velocity": 0.7874015748031497,
            "duration": 0.08928562500000048
          },
          {
            "name": "E2",
            "midi": 40,
            "time": 10.928560500000003,
            "velocity": 0.7874015748031497,
            "duration": 0.08928562500000048
          },
          {
            "name": "E3",
            "midi": 52,
            "time": 11.035703250000005,
            "velocity": 0.7874015748031497,
            "duration": 0.035714249999999836
          },
          {
            "name": "G#3",
            "midi": 56,
            "time": 11.035703250000005,
            "velocity": 0.7874015748031497,
            "duration": 0.035714249999999836
          },
          {
            "name": "B3",
            "midi": 59,
            "time": 11.035703250000005,
            "velocity": 0.7874015748031497,
            "duration": 0.035714249999999836
          },
          {
            "name": "D#4",
            "midi": 63,
            "time": 11.035703250000005,
            "velocity": 0.7874015748031497,
            "duration": 0.035714249999999836
          },
          {
            "name": "E2",
            "midi": 40,
            "time": 11.035703250000005,
            "velocity": 0.7874015748031497,
            "duration": 0.035714249999999836
          },
          {
            "name": "C#4",
            "midi": 61,
            "time": 11.142846000000004,
            "velocity": 0.7874015748031497,
            "duration": 0.04464281249999935
          },
          {
            "name": "D#4",
            "midi": 63,
            "time": 11.142846000000004,
            "velocity": 0.7874015748031497,
            "duration": 0.04464281249999935
          },
          {
            "name": "A#3",
            "midi": 58,
            "time": 11.142846000000004,
            "velocity": 0.7874015748031497,
            "duration": 0.04464281249999935
          },
          {
            "name": "F#3",
            "midi": 54,
            "time": 11.142846000000004,
            "velocity": 0.7874015748031497,
            "duration": 0.04464281249999935
          },
          {
            "name": "D#3",
            "midi": 51,
            "time": 11.142846000000004,
            "velocity": 0.7874015748031497,
            "duration": 0.04464281249999935
          },
          {
            "name": "D#2",
            "midi": 39,
            "time": 11.142846000000004,
            "velocity": 0.7874015748031497,
            "duration": 0.04464281249999935
          },
          {
            "name": "C#4",
            "midi": 61,
            "time": 11.249988750000004,
            "velocity": 0.7874015748031497,
            "duration": 0.08928562500000048
          },
          {
            "name": "A#3",
            "midi": 58,
            "time": 11.249988750000004,
            "velocity": 0.7874015748031497,
            "duration": 0.08928562500000048
          },
          {
            "name": "F#3",
            "midi": 54,
            "time": 11.249988750000004,
            "velocity": 0.7874015748031497,
            "duration": 0.08928562500000048
          },
          {
            "name": "D#3",
            "midi": 51,
            "time": 11.249988750000004,
            "velocity": 0.7874015748031497,
            "duration": 0.08928562500000048
          },
          {
            "name": "D#2",
            "midi": 39,
            "time": 11.249988750000004,
            "velocity": 0.7874015748031497,
            "duration": 0.08928562500000048
          },
          {
            "name": "C#4",
            "midi": 61,
            "time": 11.357131500000005,
            "velocity": 0.7874015748031497,
            "duration": 0.08928562500000048
          },
          {
            "name": "A#3",
            "midi": 58,
            "time": 11.357131500000005,
            "velocity": 0.7874015748031497,
            "duration": 0.08928562500000048
          },
          {
            "name": "F#3",
            "midi": 54,
            "time": 11.357131500000005,
            "velocity": 0.7874015748031497,
            "duration": 0.08928562500000048
          },
          {
            "name": "D#3",
            "midi": 51,
            "time": 11.357131500000005,
            "velocity": 0.7874015748031497,
            "duration": 0.08928562500000048
          },
          {
            "name": "D#2",
            "midi": 39,
            "time": 11.357131500000005,
            "velocity": 0.7874015748031497,
            "duration": 0.08928562500000048
          },
          {
            "name": "C#4",
            "midi": 61,
            "time": 11.464274250000006,
            "velocity": 0.7874015748031497,
            "duration": 0.08928562500000048
          },
          {
            "name": "A#3",
            "midi": 58,
            "time": 11.464274250000006,
            "velocity": 0.7874015748031497,
            "duration": 0.08928562500000048
          },
          {
            "name": "F#3",
            "midi": 54,
            "time": 11.464274250000006,
            "velocity": 0.7874015748031497,
            "duration": 0.08928562500000048
          },
          {
            "name": "D#3",
            "midi": 51,
            "time": 11.464274250000006,
            "velocity": 0.7874015748031497,
            "duration": 0.08928562500000048
          },
          {
            "name": "D#2",
            "midi": 39,
            "time": 11.464274250000006,
            "velocity": 0.7874015748031497,
            "duration": 0.08928562500000048
          },
          {
            "name": "C#4",
            "midi": 61,
            "time": 11.571417000000007,
            "velocity": 0.7874015748031497,
            "duration": 0.196428375
          },
          {
            "name": "D#2",
            "midi": 39,
            "time": 11.571417000000007,
            "velocity": 0.7874015748031497,
            "duration": 0.196428375
          },
          {
            "name": "A#3",
            "midi": 58,
            "time": 11.571417000000007,
            "velocity": 0.7874015748031497,
            "duration": 0.196428375
          },
          {
            "name": "F#3",
            "midi": 54,
            "time": 11.571417000000007,
            "velocity": 0.7874015748031497,
            "duration": 0.196428375
          },
          {
            "name": "D#3",
            "midi": 51,
            "time": 11.571417000000007,
            "velocity": 0.7874015748031497,
            "duration": 0.196428375
          },
          {
            "name": "D#4",
            "midi": 63,
            "time": 11.785702500000008,
            "velocity": 0.7874015748031497,
            "duration": 0.196428375
          },
          {
            "name": "D#3",
            "midi": 51,
            "time": 11.785702500000008,
            "velocity": 0.7874015748031497,
            "duration": 0.17857124999999918
          },
          {
            "name": "A#3",
            "midi": 58,
            "time": 11.785702500000008,
            "velocity": 0.7874015748031497,
            "duration": 0.17857124999999918
          },
          {
            "name": "F#3",
            "midi": 54,
            "time": 11.785702500000008,
            "velocity": 0.7874015748031497,
            "duration": 0.17857124999999918
          },
          {
            "name": "D#2",
            "midi": 39,
            "time": 11.785702500000008,
            "velocity": 0.7874015748031497,
            "duration": 0.2142855000000008
          },
          {
            "name": "G#2",
            "midi": 44,
            "time": 11.999988000000009,
            "velocity": 0.7874015748031497,
            "duration": 0.4285709999999998
          },
          {
            "name": "B3",
            "midi": 59,
            "time": 11.999988000000009,
            "velocity": 0.7874015748031497,
            "duration": 0.4285709999999998
          },
          {
            "name": "F#3",
            "midi": 54,
            "time": 11.999988000000009,
            "velocity": 0.7874015748031497,
            "duration": 0.4285709999999998
          },
          {
            "name": "D#3",
            "midi": 51,
            "time": 11.999988000000009,
            "velocity": 0.7874015748031497,
            "duration": 0.4285709999999998
          },
          {
            "name": "G#3",
            "midi": 56,
            "time": 11.999988000000009,
            "velocity": 0.7874015748031497,
            "duration": 0.4285709999999998
          },
          {
            "name": "G2",
            "midi": 43,
            "time": 12.428559000000009,
            "velocity": 0.7874015748031497,
            "duration": 0.4285709999999998
          },
          {
            "name": "A#3",
            "midi": 58,
            "time": 12.428559000000009,
            "velocity": 0.7874015748031497,
            "duration": 0.4285709999999998
          },
          {
            "name": "F3",
            "midi": 53,
            "time": 12.428559000000009,
            "velocity": 0.7874015748031497,
            "duration": 0.4285709999999998
          },
          {
            "name": "D3",
            "midi": 50,
            "time": 12.428559000000009,
            "velocity": 0.7874015748031497,
            "duration": 0.4285709999999998
          },
          {
            "name": "G3",
            "midi": 55,
            "time": 12.428559000000009,
            "velocity": 0.7874015748031497,
            "duration": 0.4285709999999998
          },
          {
            "name": "F#2",
            "midi": 42,
            "time": 12.857130000000009,
            "velocity": 0.7874015748031497,
            "duration": 0.4285709999999998
          },
          {
            "name": "A3",
            "midi": 57,
            "time": 12.857130000000009,
            "velocity": 0.7874015748031497,
            "duration": 0.4285709999999998
          },
          {
            "name": "E3",
            "midi": 52,
            "time": 12.857130000000009,
            "velocity": 0.7874015748031497,
            "duration": 0.4285709999999998
          },
          {
            "name": "C#3",
            "midi": 49,
            "time": 12.857130000000009,
            "velocity": 0.7874015748031497,
            "duration": 0.4285709999999998
          },
          {
            "name": "F#3",
            "midi": 54,
            "time": 12.857130000000009,
            "velocity": 0.7874015748031497,
            "duration": 0.4285709999999998
          },
          {
            "name": "B3",
            "midi": 59,
            "time": 13.285701000000008,
            "velocity": 0.7874015748031497,
            "duration": 0.4285709999999998
          },
          {
            "name": "G#3",
            "midi": 56,
            "time": 13.285701000000008,
            "velocity": 0.7874015748031497,
            "duration": 0.4285709999999998
          },
          {
            "name": "E3",
            "midi": 52,
            "time": 13.285701000000008,
            "velocity": 0.7874015748031497,
            "duration": 0.4285709999999998
          },
          {
            "name": "C#3",
            "midi": 49,
            "time": 13.285701000000008,
            "velocity": 0.7874015748031497,
            "duration": 0.4285709999999998
          },
          {
            "name": "C#2",
            "midi": 37,
            "time": 13.285701000000008,
            "velocity": 0.7874015748031497,
            "duration": 0.4285709999999998
          },
          {
            "name": "E2",
            "midi": 40,
            "time": 13.714272000000008,
            "velocity": 0.7874015748031497,
            "duration": 0.2142855000000008
          },
          {
            "name": "E2",
            "midi": 40,
            "time": 13.928557500000009,
            "velocity": 0.7874015748031497,
            "duration": 0.07142849999999967
          },
          {
            "name": "E3",
            "midi": 52,
            "time": 13.928557500000009,
            "velocity": 0.7874015748031497,
            "duration": 0.07142849999999967
          },
          {
            "name": "D#4",
            "midi": 63,
            "time": 13.928557500000009,
            "velocity": 0.7874015748031497,
            "duration": 0.07142849999999967
          },
          {
            "name": "B3",
            "midi": 59,
            "time": 13.928557500000009,
            "velocity": 0.7874015748031497,
            "duration": 0.07142849999999967
          },
          {
            "name": "G#3",
            "midi": 56,
            "time": 13.928557500000009,
            "velocity": 0.7874015748031497,
            "duration": 0.07142849999999967
          },
          {
            "name": "E2",
            "midi": 40,
            "time": 14.035700250000009,
            "velocity": 0.7874015748031497,
            "duration": 0.08035706249999919
          },
          {
            "name": "E2",
            "midi": 40,
            "time": 14.249985750000008,
            "velocity": 0.7874015748031497,
            "duration": 0.08035706249999919
          },
          {
            "name": "E3",
            "midi": 52,
            "time": 14.357128500000007,
            "velocity": 0.7874015748031497,
            "duration": 0.08035706249999919
          },
          {
            "name": "D#2",
            "midi": 39,
            "time": 14.464271250000007,
            "velocity": 0.7874015748031497,
            "duration": 0.1874998124999987
          },
          {
            "name": "F#3",
            "midi": 54,
            "time": 14.464271250000007,
            "velocity": 0.7874015748031497,
            "duration": 0.17857124999999918
          },
          {
            "name": "A#3",
            "midi": 58,
            "time": 14.464271250000007,
            "velocity": 0.7874015748031497,
            "duration": 0.17857124999999918
          },
          {
            "name": "C#4",
            "midi": 61,
            "time": 14.464271250000007,
            "velocity": 0.7874015748031497,
            "duration": 0.17857124999999918
          },
          {
            "name": "D#3",
            "midi": 51,
            "time": 14.464271250000007,
            "velocity": 0.7874015748031497,
            "duration": 0.17857124999999918
          },
          {
            "name": "D#3",
            "midi": 51,
            "time": 14.678556750000006,
            "velocity": 0.7874015748031497,
            "duration": 0.17857124999999918
          },
          {
            "name": "C#4",
            "midi": 61,
            "time": 14.678556750000006,
            "velocity": 0.7874015748031497,
            "duration": 0.17857124999999918
          },
          {
            "name": "A#3",
            "midi": 58,
            "time": 14.678556750000006,
            "velocity": 0.7874015748031497,
            "duration": 0.17857124999999918
          },
          {
            "name": "F#3",
            "midi": 54,
            "time": 14.678556750000006,
            "velocity": 0.7874015748031497,
            "duration": 0.17857124999999918
          },
          {
            "name": "D#2",
            "midi": 39,
            "time": 14.678556750000006,
            "velocity": 0.7874015748031497,
            "duration": 0.1874998124999987
          },
          {
            "name": "D#2",
            "midi": 39,
            "time": 14.999985000000004,
            "velocity": 0.7874015748031497,
            "duration": 0.10714274999999951
          },
          {
            "name": "F#3",
            "midi": 54,
            "time": 14.999985000000004,
            "velocity": 0.7874015748031497,
            "duration": 0.17857124999999918
          },
          {
            "name": "A#3",
            "midi": 58,
            "time": 14.999985000000004,
            "velocity": 0.7874015748031497,
            "duration": 0.17857124999999918
          },
          {
            "name": "C#4",
            "midi": 61,
            "time": 14.999985000000004,
            "velocity": 0.7874015748031497,
            "duration": 0.17857124999999918
          },
          {
            "name": "D#3",
            "midi": 51,
            "time": 14.999985000000004,
            "velocity": 0.7874015748031497,
            "duration": 0.17857124999999918
          },
          {
            "name": "D#2",
            "midi": 39,
            "time": 15.214270500000003,
            "velocity": 0.7874015748031497,
            "duration": 0.10714274999999951
          },
          {
            "name": "F#3",
            "midi": 54,
            "time": 15.214270500000003,
            "velocity": 0.7874015748031497,
            "duration": 0.17857124999999918
          },
          {
            "name": "A#3",
            "midi": 58,
            "time": 15.214270500000003,
            "velocity": 0.7874015748031497,
            "duration": 0.17857124999999918
          },
          {
            "name": "C#4",
            "midi": 61,
            "time": 15.214270500000003,
            "velocity": 0.7874015748031497,
            "duration": 0.17857124999999918
          },
          {
            "name": "D#3",
            "midi": 51,
            "time": 15.214270500000003,
            "velocity": 0.7874015748031497,
            "duration": 0.17857124999999918
          },
          {
            "name": "G#1",
            "midi": 32,
            "time": 15.428556000000002,
            "velocity": 0.7874015748031497,
            "duration": 0.2142855000000008
          },
          {
            "name": "B3",
            "midi": 59,
            "time": 15.642841500000003,
            "velocity": 0.7874015748031497,
            "duration": 0.07142849999999967
          },
          {
            "name": "F#3",
            "midi": 54,
            "time": 15.642841500000003,
            "velocity": 0.7874015748031497,
            "duration": 0.07142849999999967
          },
          {
            "name": "D#3",
            "midi": 51,
            "time": 15.642841500000003,
            "velocity": 0.7874015748031497,
            "duration": 0.07142849999999967
          },
          {
            "name": "G#3",
            "midi": 56,
            "time": 15.642841500000003,
            "velocity": 0.7874015748031497,
            "duration": 0.07142849999999967
          },
          {
            "name": "G#1",
            "midi": 32,
            "time": 15.642841500000003,
            "velocity": 0.7874015748031497,
            "duration": 0.07142849999999967
          },
          {
            "name": "G#1",
            "midi": 32,
            "time": 15.749984250000002,
            "velocity": 0.7874015748031497,
            "duration": 0.08035706249999919
          },
          {
            "name": "B3",
            "midi": 59,
            "time": 15.964269750000001,
            "velocity": 0.7874015748031497,
            "duration": 0.07142850000000145
          },
          {
            "name": "F#3",
            "midi": 54,
            "time": 15.964269750000001,
            "velocity": 0.7874015748031497,
            "duration": 0.07142850000000145
          },
          {
            "name": "D#3",
            "midi": 51,
            "time": 15.964269750000001,
            "velocity": 0.7874015748031497,
            "duration": 0.07142850000000145
          },
          {
            "name": "G#3",
            "midi": 56,
            "time": 15.964269750000001,
            "velocity": 0.7874015748031497,
            "duration": 0.07142850000000145
          },
          {
            "name": "G#1",
            "midi": 32,
            "time": 15.964269750000001,
            "velocity": 0.7874015748031497,
            "duration": 0.08035706250000096
          },
          {
            "name": "B2",
            "midi": 47,
            "time": 16.0714125,
            "velocity": 0.7874015748031497,
            "duration": 0.08035706249999919
          },
          {
            "name": "B2",
            "midi": 47,
            "time": 16.17855525,
            "velocity": 0.7874015748031497,
            "duration": 0.29464256250000176
          },
          {
            "name": "A3",
            "midi": 57,
            "time": 16.17855525,
            "velocity": 0.7874015748031497,
            "duration": 0.29464256250000176
          },
          {
            "name": "F#3",
            "midi": 54,
            "time": 16.17855525,
            "velocity": 0.7874015748031497,
            "duration": 0.29464256250000176
          },
          {
            "name": "D#3",
            "midi": 51,
            "time": 16.17855525,
            "velocity": 0.7874015748031497,
            "duration": 0.29464256250000176
          },
          {
            "name": "B1",
            "midi": 35,
            "time": 16.17855525,
            "velocity": 0.7874015748031497,
            "duration": 0.29464256250000176
          },
          {
            "name": "B2",
            "midi": 47,
            "time": 16.4999835,
            "velocity": 0.7874015748031497,
            "duration": 0.09821418750000177
          },
          {
            "name": "A3",
            "midi": 57,
            "time": 16.4999835,
            "velocity": 0.7874015748031497,
            "duration": 0.09821418750000177
          },
          {
            "name": "F#3",
            "midi": 54,
            "time": 16.4999835,
            "velocity": 0.7874015748031497,
            "duration": 0.09821418750000177
          },
          {
            "name": "D#3",
            "midi": 51,
            "time": 16.4999835,
            "velocity": 0.7874015748031497,
            "duration": 0.09821418750000177
          },
          {
            "name": "B1",
            "midi": 35,
            "time": 16.4999835,
            "velocity": 0.7874015748031497,
            "duration": 0.09821418750000177
          },
          {
            "name": "B1",
            "midi": 35,
            "time": 16.714269,
            "velocity": 0.7874015748031497,
            "duration": 0.18749981250000047
          },
          {
            "name": "D#3",
            "midi": 51,
            "time": 16.714269,
            "velocity": 0.7874015748031497,
            "duration": 0.18749981250000047
          },
          {
            "name": "F#3",
            "midi": 54,
            "time": 16.714269,
            "velocity": 0.7874015748031497,
            "duration": 0.18749981250000047
          },
          {
            "name": "A3",
            "midi": 57,
            "time": 16.714269,
            "velocity": 0.7874015748031497,
            "duration": 0.18749981250000047
          },
          {
            "name": "B2",
            "midi": 47,
            "time": 16.714269,
            "velocity": 0.7874015748031497,
            "duration": 0.18749981250000047
          },
          {
            "name": "B1",
            "midi": 35,
            "time": 16.9285545,
            "velocity": 0.7874015748031497,
            "duration": 0.18749981250000047
          },
          {
            "name": "D#3",
            "midi": 51,
            "time": 16.9285545,
            "velocity": 0.7874015748031497,
            "duration": 0.18749981250000047
          },
          {
            "name": "F#3",
            "midi": 54,
            "time": 16.9285545,
            "velocity": 0.7874015748031497,
            "duration": 0.18749981250000047
          },
          {
            "name": "A3",
            "midi": 57,
            "time": 16.9285545,
            "velocity": 0.7874015748031497,
            "duration": 0.18749981250000047
          },
          {
            "name": "B2",
            "midi": 47,
            "time": 16.9285545,
            "velocity": 0.7874015748031497,
            "duration": 0.18749981250000047
          },
          {
            "name": "E2",
            "midi": 40,
            "time": 17.14284,
            "velocity": 0.7874015748031497,
            "duration": 0.21428549999999902
          },
          {
            "name": "E2",
            "midi": 40,
            "time": 17.3571255,
            "velocity": 0.7874015748031497,
            "duration": 0.07142849999999967
          },
          {
            "name": "G#3",
            "midi": 56,
            "time": 17.3571255,
            "velocity": 0.7874015748031497,
            "duration": 0.07142849999999967
          },
          {
            "name": "B3",
            "midi": 59,
            "time": 17.3571255,
            "velocity": 0.7874015748031497,
            "duration": 0.07142849999999967
          },
          {
            "name": "D#4",
            "midi": 63,
            "time": 17.3571255,
            "velocity": 0.7874015748031497,
            "duration": 0.07142849999999967
          },
          {
            "name": "E3",
            "midi": 52,
            "time": 17.3571255,
            "velocity": 0.7874015748031497,
            "duration": 0.07142849999999967
          },
          {
            "name": "E2",
            "midi": 40,
            "time": 17.46426825,
            "velocity": 0.7874015748031497,
            "duration": 0.08035706249999919
          },
          {
            "name": "G#3",
            "midi": 56,
            "time": 17.46426825,
            "velocity": 0.7874015748031497,
            "duration": 0.07142849999999967
          },
          {
            "name": "B3",
            "midi": 59,
            "time": 17.46426825,
            "velocity": 0.7874015748031497,
            "duration": 0.07142849999999967
          },
          {
            "name": "D#4",
            "midi": 63,
            "time": 17.46426825,
            "velocity": 0.7874015748031497,
            "duration": 0.07142849999999967
          },
          {
            "name": "E3",
            "midi": 52,
            "time": 17.46426825,
            "velocity": 0.7874015748031497,
            "duration": 0.07142849999999967
          },
          {
            "name": "E2",
            "midi": 40,
            "time": 17.67855375,
            "velocity": 0.7874015748031497,
            "duration": 0.08035706249999919
          },
          {
            "name": "E3",
            "midi": 52,
            "time": 17.67855375,
            "velocity": 0.7874015748031497,
            "duration": 0.07142849999999967
          },
          {
            "name": "D#4",
            "midi": 63,
            "time": 17.67855375,
            "velocity": 0.7874015748031497,
            "duration": 0.07142849999999967
          },
          {
            "name": "B3",
            "midi": 59,
            "time": 17.67855375,
            "velocity": 0.7874015748031497,
            "duration": 0.07142849999999967
          },
          {
            "name": "G#3",
            "midi": 56,
            "time": 17.67855375,
            "velocity": 0.7874015748031497,
            "duration": 0.07142849999999967
          },
          {
            "name": "E3",
            "midi": 52,
            "time": 17.785696499999997,
            "velocity": 0.7874015748031497,
            "duration": 0.08035706249999919
          },
          {
            "name": "D#2",
            "midi": 39,
            "time": 17.892839249999994,
            "velocity": 0.7874015748031497,
            "duration": 0.18749981250000047
          },
          {
            "name": "F#3",
            "midi": 54,
            "time": 17.892839249999994,
            "velocity": 0.7874015748031497,
            "duration": 0.17857125000000096
          },
          {
            "name": "A#3",
            "midi": 58,
            "time": 17.892839249999994,
            "velocity": 0.7874015748031497,
            "duration": 0.17857125000000096
          },
          {
            "name": "C#4",
            "midi": 61,
            "time": 17.892839249999994,
            "velocity": 0.7874015748031497,
            "duration": 0.17857125000000096
          },
          {
            "name": "D#3",
            "midi": 51,
            "time": 17.892839249999994,
            "velocity": 0.7874015748031497,
            "duration": 0.17857125000000096
          },
          {
            "name": "D#2",
            "midi": 39,
            "time": 18.107124749999993,
            "velocity": 0.7874015748031497,
            "duration": 0.08035706249999919
          },
          {
            "name": "F#3",
            "midi": 54,
            "time": 18.107124749999993,
            "velocity": 0.7874015748031497,
            "duration": 0.07142849999999967
          },
          {
            "name": "A#3",
            "midi": 58,
            "time": 18.107124749999993,
            "velocity": 0.7874015748031497,
            "duration": 0.07142849999999967
          },
          {
            "name": "C#4",
            "midi": 61,
            "time": 18.107124749999993,
            "velocity": 0.7874015748031497,
            "duration": 0.07142849999999967
          },
          {
            "name": "D#3",
            "midi": 51,
            "time": 18.107124749999993,
            "velocity": 0.7874015748031497,
            "duration": 0.07142849999999967
          },
          {
            "name": "D#3",
            "midi": 51,
            "time": 18.21426749999999,
            "velocity": 0.7874015748031497,
            "duration": 0.07142849999999967
          },
          {
            "name": "C#4",
            "midi": 61,
            "time": 18.21426749999999,
            "velocity": 0.7874015748031497,
            "duration": 0.07142849999999967
          },
          {
            "name": "A#3",
            "midi": 58,
            "time": 18.21426749999999,
            "velocity": 0.7874015748031497,
            "duration": 0.07142849999999967
          },
          {
            "name": "F#3",
            "midi": 54,
            "time": 18.21426749999999,
            "velocity": 0.7874015748031497,
            "duration": 0.07142849999999967
          },
          {
            "name": "D#2",
            "midi": 39,
            "time": 18.21426749999999,
            "velocity": 0.7874015748031497,
            "duration": 0.08035706249999919
          },
          {
            "name": "D#3",
            "midi": 51,
            "time": 18.42855299999999,
            "velocity": 0.7874015748031497,
            "duration": 0.17857125000000096
          },
          {
            "name": "C#4",
            "midi": 61,
            "time": 18.42855299999999,
            "velocity": 0.7874015748031497,
            "duration": 0.17857125000000096
          },
          {
            "name": "A#3",
            "midi": 58,
            "time": 18.42855299999999,
            "velocity": 0.7874015748031497,
            "duration": 0.17857125000000096
          },
          {
            "name": "F#3",
            "midi": 54,
            "time": 18.42855299999999,
            "velocity": 0.7874015748031497,
            "duration": 0.17857125000000096
          },
          {
            "name": "D#2",
            "midi": 39,
            "time": 18.42855299999999,
            "velocity": 0.7874015748031497,
            "duration": 0.10714275000000129
          },
          {
            "name": "D#3",
            "midi": 51,
            "time": 18.642838499999993,
            "velocity": 0.7874015748031497,
            "duration": 0.17857125000000096
          },
          {
            "name": "C#4",
            "midi": 61,
            "time": 18.642838499999993,
            "velocity": 0.7874015748031497,
            "duration": 0.17857125000000096
          },
          {
            "name": "A#3",
            "midi": 58,
            "time": 18.642838499999993,
            "velocity": 0.7874015748031497,
            "duration": 0.17857125000000096
          },
          {
            "name": "F#3",
            "midi": 54,
            "time": 18.642838499999993,
            "velocity": 0.7874015748031497,
            "duration": 0.17857125000000096
          },
          {
            "name": "D#2",
            "midi": 39,
            "time": 18.642838499999993,
            "velocity": 0.7874015748031497,
            "duration": 0.10714275000000129
          },
          {
            "name": "G#1",
            "midi": 32,
            "time": 18.857123999999995,
            "velocity": 0.7874015748031497,
            "duration": 0.21428549999999902
          },
          {
            "name": "G#1",
            "midi": 32,
            "time": 19.071409499999994,
            "velocity": 0.7874015748031497,
            "duration": 0.07142849999999967
          },
          {
            "name": "G#3",
            "midi": 56,
            "time": 19.071409499999994,
            "velocity": 0.7874015748031497,
            "duration": 0.07142849999999967
          },
          {
            "name": "D#3",
            "midi": 51,
            "time": 19.071409499999994,
            "velocity": 0.7874015748031497,
            "duration": 0.07142849999999967
          },
          {
            "name": "F#3",
            "midi": 54,
            "time": 19.071409499999994,
            "velocity": 0.7874015748031497,
            "duration": 0.07142849999999967
          },
          {
            "name": "B3",
            "midi": 59,
            "time": 19.071409499999994,
            "velocity": 0.7874015748031497,
            "duration": 0.07142849999999967
          },
          {
            "name": "G#1",
            "midi": 32,
            "time": 19.178552249999996,
            "velocity": 0.7874015748031497,
            "duration": 0.08035706249999919
          },
          {
            "name": "G#1",
            "midi": 32,
            "time": 19.392837749999995,
            "velocity": 0.7874015748031497,
            "duration": 0.08035706249999919
          },
          {
            "name": "B3",
            "midi": 59,
            "time": 19.392837749999995,
            "velocity": 0.7874015748031497,
            "duration": 0.07142849999999967
          },
          {
            "name": "F#3",
            "midi": 54,
            "time": 19.392837749999995,
            "velocity": 0.7874015748031497,
            "duration": 0.07142849999999967
          },
          {
            "name": "D#3",
            "midi": 51,
            "time": 19.392837749999995,
            "velocity": 0.7874015748031497,
            "duration": 0.07142849999999967
          },
          {
            "name": "G#3",
            "midi": 56,
            "time": 19.392837749999995,
            "velocity": 0.7874015748031497,
            "duration": 0.07142849999999967
          },
          {
            "name": "B2",
            "midi": 47,
            "time": 19.499980499999992,
            "velocity": 0.7874015748031497,
            "duration": 0.08035706249999919
          },
          {
            "name": "D#3",
            "midi": 51,
            "time": 19.499980499999992,
            "velocity": 0.7874015748031497,
            "duration": 0.06249993750000016
          },
          {
            "name": "F#3",
            "midi": 54,
            "time": 19.499980499999992,
            "velocity": 0.7874015748031497,
            "duration": 0.06249993750000016
          },
          {
            "name": "A3",
            "midi": 57,
            "time": 19.499980499999992,
            "velocity": 0.7874015748031497,
            "duration": 0.06249993750000016
          },
          {
            "name": "B2",
            "midi": 47,
            "time": 19.60712324999999,
            "velocity": 0.7874015748031497,
            "duration": 0.29464256250000176
          },
          {
            "name": "B1",
            "midi": 35,
            "time": 19.60712324999999,
            "velocity": 0.7874015748031497,
            "duration": 0.29464256250000176
          },
          {
            "name": "A3",
            "midi": 57,
            "time": 19.60712324999999,
            "velocity": 0.7874015748031497,
            "duration": 0.29464256250000176
          },
          {
            "name": "F#3",
            "midi": 54,
            "time": 19.60712324999999,
            "velocity": 0.7874015748031497,
            "duration": 0.29464256250000176
          },
          {
            "name": "D#3",
            "midi": 51,
            "time": 19.60712324999999,
            "velocity": 0.7874015748031497,
            "duration": 0.29464256250000176
          },
          {
            "name": "B1",
            "midi": 35,
            "time": 19.92855149999999,
            "velocity": 0.7874015748031497,
            "duration": 0.09821418750000177
          },
          {
            "name": "D#3",
            "midi": 51,
            "time": 19.92855149999999,
            "velocity": 0.7874015748031497,
            "duration": 0.09821418750000177
          },
          {
            "name": "F#3",
            "midi": 54,
            "time": 19.92855149999999,
            "velocity": 0.7874015748031497,
            "duration": 0.09821418750000177
          },
          {
            "name": "A3",
            "midi": 57,
            "time": 19.92855149999999,
            "velocity": 0.7874015748031497,
            "duration": 0.09821418750000177
          },
          {
            "name": "B2",
            "midi": 47,
            "time": 19.92855149999999,
            "velocity": 0.7874015748031497,
            "duration": 0.09821418750000177
          },
          {
            "name": "B2",
            "midi": 47,
            "time": 20.142836999999993,
            "velocity": 0.7874015748031497,
            "duration": 0.18749981250000047
          },
          {
            "name": "A3",
            "midi": 57,
            "time": 20.142836999999993,
            "velocity": 0.7874015748031497,
            "duration": 0.18749981250000047
          },
          {
            "name": "F#3",
            "midi": 54,
            "time": 20.142836999999993,
            "velocity": 0.7874015748031497,
            "duration": 0.18749981250000047
          },
          {
            "name": "D#3",
            "midi": 51,
            "time": 20.142836999999993,
            "velocity": 0.7874015748031497,
            "duration": 0.18749981250000047
          },
          {
            "name": "B1",
            "midi": 35,
            "time": 20.142836999999993,
            "velocity": 0.7874015748031497,
            "duration": 0.18749981250000047
          },
          {
            "name": "B1",
            "midi": 35,
            "time": 20.357122499999992,
            "velocity": 0.7874015748031497,
            "duration": 0.18749981250000047
          },
          {
            "name": "D#3",
            "midi": 51,
            "time": 20.357122499999992,
            "velocity": 0.7874015748031497,
            "duration": 0.18749981250000047
          },
          {
            "name": "F#3",
            "midi": 54,
            "time": 20.357122499999992,
            "velocity": 0.7874015748031497,
            "duration": 0.18749981250000047
          },
          {
            "name": "A3",
            "midi": 57,
            "time": 20.357122499999992,
            "velocity": 0.7874015748031497,
            "duration": 0.18749981250000047
          },
          {
            "name": "B2",
            "midi": 47,
            "time": 20.357122499999992,
            "velocity": 0.7874015748031497,
            "duration": 0.18749981250000047
          },
          {
            "name": "E2",
            "midi": 40,
            "time": 20.57140799999999,
            "velocity": 0.7874015748031497,
            "duration": 0.21428549999999902
          },
          {
            "name": "E2",
            "midi": 40,
            "time": 20.78569349999999,
            "velocity": 0.7874015748031497,
            "duration": 0.07142849999999967
          },
          {
            "name": "E3",
            "midi": 52,
            "time": 20.78569349999999,
            "velocity": 0.7874015748031497,
            "duration": 0.07142849999999967
          },
          {
            "name": "D#4",
            "midi": 63,
            "time": 20.78569349999999,
            "velocity": 0.7874015748031497,
            "duration": 0.07142849999999967
          },
          {
            "name": "B3",
            "midi": 59,
            "time": 20.78569349999999,
            "velocity": 0.7874015748031497,
            "duration": 0.07142849999999967
          },
          {
            "name": "G#3",
            "midi": 56,
            "time": 20.78569349999999,
            "velocity": 0.7874015748031497,
            "duration": 0.07142849999999967
          },
          {
            "name": "E2",
            "midi": 40,
            "time": 20.89283624999999,
            "velocity": 0.7874015748031497,
            "duration": 0.08035706249999919
          },
          {
            "name": "E2",
            "midi": 40,
            "time": 21.10712174999999,
            "velocity": 0.7874015748031497,
            "duration": 0.08035706249999919
          },
          {
            "name": "E3",
            "midi": 52,
            "time": 21.214264499999988,
            "velocity": 0.7874015748031497,
            "duration": 0.08035706249999919
          },
          {
            "name": "D#3",
            "midi": 51,
            "time": 21.321407249999986,
            "velocity": 0.7874015748031497,
            "duration": 0.17857125000000096
          },
          {
            "name": "C#4",
            "midi": 61,
            "time": 21.321407249999986,
            "velocity": 0.7874015748031497,
            "duration": 0.17857125000000096
          },
          {
            "name": "A#3",
            "midi": 58,
            "time": 21.321407249999986,
            "velocity": 0.7874015748031497,
            "duration": 0.17857125000000096
          },
          {
            "name": "F#3",
            "midi": 54,
            "time": 21.321407249999986,
            "velocity": 0.7874015748031497,
            "duration": 0.17857125000000096
          },
          {
            "name": "D#2",
            "midi": 39,
            "time": 21.321407249999986,
            "velocity": 0.7874015748031497,
            "duration": 0.18749981250000047
          },
          {
            "name": "D#3",
            "midi": 51,
            "time": 21.535692749999985,
            "velocity": 0.7874015748031497,
            "duration": 0.17857125000000096
          },
          {
            "name": "C#4",
            "midi": 61,
            "time": 21.535692749999985,
            "velocity": 0.7874015748031497,
            "duration": 0.17857125000000096
          },
          {
            "name": "A#3",
            "midi": 58,
            "time": 21.535692749999985,
            "velocity": 0.7874015748031497,
            "duration": 0.17857125000000096
          },
          {
            "name": "F#3",
            "midi": 54,
            "time": 21.535692749999985,
            "velocity": 0.7874015748031497,
            "duration": 0.17857125000000096
          },
          {
            "name": "D#2",
            "midi": 39,
            "time": 21.535692749999985,
            "velocity": 0.7874015748031497,
            "duration": 0.18749981250000047
          },
          {
            "name": "D#2",
            "midi": 39,
            "time": 21.857120999999985,
            "velocity": 0.7874015748031497,
            "duration": 0.10714275000000129
          },
          {
            "name": "F#3",
            "midi": 54,
            "time": 21.857120999999985,
            "velocity": 0.7874015748031497,
            "duration": 0.17857125000000096
          },
          {
            "name": "A#3",
            "midi": 58,
            "time": 21.857120999999985,
            "velocity": 0.7874015748031497,
            "duration": 0.17857125000000096
          },
          {
            "name": "C#4",
            "midi": 61,
            "time": 21.857120999999985,
            "velocity": 0.7874015748031497,
            "duration": 0.17857125000000096
          },
          {
            "name": "D#3",
            "midi": 51,
            "time": 21.857120999999985,
            "velocity": 0.7874015748031497,
            "duration": 0.17857125000000096
          },
          {
            "name": "D#3",
            "midi": 51,
            "time": 22.071406499999988,
            "velocity": 0.7874015748031497,
            "duration": 0.17857125000000096
          },
          {
            "name": "C#4",
            "midi": 61,
            "time": 22.071406499999988,
            "velocity": 0.7874015748031497,
            "duration": 0.17857125000000096
          },
          {
            "name": "A#3",
            "midi": 58,
            "time": 22.071406499999988,
            "velocity": 0.7874015748031497,
            "duration": 0.17857125000000096
          },
          {
            "name": "F#3",
            "midi": 54,
            "time": 22.071406499999988,
            "velocity": 0.7874015748031497,
            "duration": 0.17857125000000096
          },
          {
            "name": "D#2",
            "midi": 39,
            "time": 22.071406499999988,
            "velocity": 0.7874015748031497,
            "duration": 0.10714275000000129
          },
          {
            "name": "G#1",
            "midi": 32,
            "time": 22.28569199999999,
            "velocity": 0.7874015748031497,
            "duration": 0.21428549999999902
          },
          {
            "name": "G#1",
            "midi": 32,
            "time": 22.49997749999999,
            "velocity": 0.7874015748031497,
            "duration": 0.07142849999999967
          },
          {
            "name": "G#3",
            "midi": 56,
            "time": 22.49997749999999,
            "velocity": 0.7874015748031497,
            "duration": 0.07142849999999967
          },
          {
            "name": "D#3",
            "midi": 51,
            "time": 22.49997749999999,
            "velocity": 0.7874015748031497,
            "duration": 0.07142849999999967
          },
          {
            "name": "F#3",
            "midi": 54,
            "time": 22.49997749999999,
            "velocity": 0.7874015748031497,
            "duration": 0.07142849999999967
          },
          {
            "name": "B3",
            "midi": 59,
            "time": 22.49997749999999,
            "velocity": 0.7874015748031497,
            "duration": 0.07142849999999967
          },
          {
            "name": "G#1",
            "midi": 32,
            "time": 22.60712024999999,
            "velocity": 0.7874015748031497,
            "duration": 0.08035706249999919
          },
          {
            "name": "B3",
            "midi": 59,
            "time": 22.82140574999999,
            "velocity": 0.7874015748031497,
            "duration": 0.07142849999999967
          },
          {
            "name": "F#3",
            "midi": 54,
            "time": 22.82140574999999,
            "velocity": 0.7874015748031497,
            "duration": 0.07142849999999967
          },
          {
            "name": "D#3",
            "midi": 51,
            "time": 22.82140574999999,
            "velocity": 0.7874015748031497,
            "duration": 0.07142849999999967
          },
          {
            "name": "G#3",
            "midi": 56,
            "time": 22.82140574999999,
            "velocity": 0.7874015748031497,
            "duration": 0.07142849999999967
          },
          {
            "name": "G#1",
            "midi": 32,
            "time": 22.82140574999999,
            "velocity": 0.7874015748031497,
            "duration": 0.08035706249999919
          },
          {
            "name": "B2",
            "midi": 47,
            "time": 22.928548499999987,
            "velocity": 0.7874015748031497,
            "duration": 0.08035706249999919
          },
          {
            "name": "B2",
            "midi": 47,
            "time": 23.035691249999985,
            "velocity": 0.7874015748031497,
            "duration": 0.29464256250000176
          },
          {
            "name": "A3",
            "midi": 57,
            "time": 23.035691249999985,
            "velocity": 0.7874015748031497,
            "duration": 0.29464256250000176
          },
          {
            "name": "F#3",
            "midi": 54,
            "time": 23.035691249999985,
            "velocity": 0.7874015748031497,
            "duration": 0.29464256250000176
          },
          {
            "name": "D#3",
            "midi": 51,
            "time": 23.035691249999985,
            "velocity": 0.7874015748031497,
            "duration": 0.29464256250000176
          },
          {
            "name": "B1",
            "midi": 35,
            "time": 23.035691249999985,
            "velocity": 0.7874015748031497,
            "duration": 0.29464256250000176
          },
          {
            "name": "B2",
            "midi": 47,
            "time": 23.357119499999985,
            "velocity": 0.7874015748031497,
            "duration": 0.09821418750000177
          },
          {
            "name": "A3",
            "midi": 57,
            "time": 23.357119499999985,
            "velocity": 0.7874015748031497,
            "duration": 0.09821418750000177
          },
          {
            "name": "F#3",
            "midi": 54,
            "time": 23.357119499999985,
            "velocity": 0.7874015748031497,
            "duration": 0.09821418750000177
          },
          {
            "name": "D#3",
            "midi": 51,
            "time": 23.357119499999985,
            "velocity": 0.7874015748031497,
            "duration": 0.09821418750000177
          },
          {
            "name": "B1",
            "midi": 35,
            "time": 23.357119499999985,
            "velocity": 0.7874015748031497,
            "duration": 0.09821418750000177
          },
          {
            "name": "B1",
            "midi": 35,
            "time": 23.571404999999988,
            "velocity": 0.7874015748031497,
            "duration": 0.18749981250000047
          },
          {
            "name": "B2",
            "midi": 47,
            "time": 23.571404999999988,
            "velocity": 0.7874015748031497,
            "duration": 0.18749981250000047
          },
          {
            "name": "A3",
            "midi": 57,
            "time": 23.571404999999988,
            "velocity": 0.7874015748031497,
            "duration": 0.18749981250000047
          },
          {
            "name": "F#3",
            "midi": 54,
            "time": 23.571404999999988,
            "velocity": 0.7874015748031497,
            "duration": 0.18749981250000047
          },
          {
            "name": "D#3",
            "midi": 51,
            "time": 23.571404999999988,
            "velocity": 0.7874015748031497,
            "duration": 0.18749981250000047
          },
          {
            "name": "D#2",
            "midi": 39,
            "time": 23.785690499999987,
            "velocity": 0.7874015748031497,
            "duration": 0.18749981250000047
          },
          {
            "name": "D#3",
            "midi": 51,
            "time": 23.785690499999987,
            "velocity": 0.7874015748031497,
            "duration": 0.18749981250000047
          },
          {
            "name": "A3",
            "midi": 57,
            "time": 23.785690499999987,
            "velocity": 0.7874015748031497,
            "duration": 0.18749981250000047
          },
          {
            "name": "C#4",
            "midi": 61,
            "time": 23.785690499999987,
            "velocity": 0.7874015748031497,
            "duration": 0.18749981250000047
          },
          {
            "name": "F#3",
            "midi": 54,
            "time": 23.785690499999987,
            "velocity": 0.7874015748031497,
            "duration": 0.18749981250000047
          },
          {
            "name": "E2",
            "midi": 40,
            "time": 23.999975999999986,
            "velocity": 0.7874015748031497,
            "duration": 0.21428549999999902
          },
          {
            "name": "E2",
            "midi": 40,
            "time": 24.214261499999985,
            "velocity": 0.7874015748031497,
            "duration": 0.21428549999999902
          },
          {
            "name": "E3",
            "midi": 52,
            "time": 24.214261499999985,
            "velocity": 0.7874015748031497,
            "duration": 0.21428549999999902
          },
          {
            "name": "G#3",
            "midi": 56,
            "time": 24.214261499999985,
            "velocity": 0.7874015748031497,
            "duration": 0.21428549999999902
          },
          {
            "name": "B3",
            "midi": 59,
            "time": 24.214261499999985,
            "velocity": 0.7874015748031497,
            "duration": 0.21428549999999902
          },
          {
            "name": "D#4",
            "midi": 63,
            "time": 24.214261499999985,
            "velocity": 0.7874015748031497,
            "duration": 0.21428549999999902
          },
          {
            "name": "E3",
            "midi": 52,
            "time": 24.428546999999984,
            "velocity": 0.7874015748031497,
            "duration": 0.0892856249999987
          },
          {
            "name": "G#3",
            "midi": 56,
            "time": 24.428546999999984,
            "velocity": 0.7874015748031497,
            "duration": 0.0892856249999987
          },
          {
            "name": "B3",
            "midi": 59,
            "time": 24.428546999999984,
            "velocity": 0.7874015748031497,
            "duration": 0.0892856249999987
          },
          {
            "name": "D#4",
            "midi": 63,
            "time": 24.428546999999984,
            "velocity": 0.7874015748031497,
            "duration": 0.0892856249999987
          },
          {
            "name": "E2",
            "midi": 40,
            "time": 24.428546999999984,
            "velocity": 0.7874015748031497,
            "duration": 0.0892856249999987
          },
          {
            "name": "E3",
            "midi": 52,
            "time": 24.53568974999998,
            "velocity": 0.7874015748031497,
            "duration": 0.03571425000000161
          },
          {
            "name": "G#3",
            "midi": 56,
            "time": 24.53568974999998,
            "velocity": 0.7874015748031497,
            "duration": 0.03571425000000161
          },
          {
            "name": "B3",
            "midi": 59,
            "time": 24.53568974999998,
            "velocity": 0.7874015748031497,
            "duration": 0.03571425000000161
          },
          {
            "name": "D#4",
            "midi": 63,
            "time": 24.53568974999998,
            "velocity": 0.7874015748031497,
            "duration": 0.03571425000000161
          },
          {
            "name": "E2",
            "midi": 40,
            "time": 24.53568974999998,
            "velocity": 0.7874015748031497,
            "duration": 0.03571425000000161
          },
          {
            "name": "E3",
            "midi": 52,
            "time": 24.642832499999983,
            "velocity": 0.7874015748031497,
            "duration": 0.0892856249999987
          },
          {
            "name": "G#3",
            "midi": 56,
            "time": 24.642832499999983,
            "velocity": 0.7874015748031497,
            "duration": 0.0892856249999987
          },
          {
            "name": "B3",
            "midi": 59,
            "time": 24.642832499999983,
            "velocity": 0.7874015748031497,
            "duration": 0.0892856249999987
          },
          {
            "name": "D#4",
            "midi": 63,
            "time": 24.642832499999983,
            "velocity": 0.7874015748031497,
            "duration": 0.0892856249999987
          },
          {
            "name": "E2",
            "midi": 40,
            "time": 24.642832499999983,
            "velocity": 0.7874015748031497,
            "duration": 0.0892856249999987
          },
          {
            "name": "E3",
            "midi": 52,
            "time": 24.74997524999998,
            "velocity": 0.7874015748031497,
            "duration": 0.03571425000000161
          },
          {
            "name": "G#3",
            "midi": 56,
            "time": 24.74997524999998,
            "velocity": 0.7874015748031497,
            "duration": 0.03571425000000161
          },
          {
            "name": "B3",
            "midi": 59,
            "time": 24.74997524999998,
            "velocity": 0.7874015748031497,
            "duration": 0.03571425000000161
          },
          {
            "name": "D#4",
            "midi": 63,
            "time": 24.74997524999998,
            "velocity": 0.7874015748031497,
            "duration": 0.03571425000000161
          },
          {
            "name": "E2",
            "midi": 40,
            "time": 24.74997524999998,
            "velocity": 0.7874015748031497,
            "duration": 0.03571425000000161
          },
          {
            "name": "C#4",
            "midi": 61,
            "time": 24.857117999999982,
            "velocity": 0.7874015748031497,
            "duration": 0.04464281250000113
          },
          {
            "name": "D#4",
            "midi": 63,
            "time": 24.857117999999982,
            "velocity": 0.7874015748031497,
            "duration": 0.04464281250000113
          },
          {
            "name": "A#3",
            "midi": 58,
            "time": 24.857117999999982,
            "velocity": 0.7874015748031497,
            "duration": 0.04464281250000113
          },
          {
            "name": "F#3",
            "midi": 54,
            "time": 24.857117999999982,
            "velocity": 0.7874015748031497,
            "duration": 0.04464281250000113
          },
          {
            "name": "D#3",
            "midi": 51,
            "time": 24.857117999999982,
            "velocity": 0.7874015748031497,
            "duration": 0.04464281250000113
          },
          {
            "name": "D#2",
            "midi": 39,
            "time": 24.857117999999982,
            "velocity": 0.7874015748031497,
            "duration": 0.04464281250000113
          },
          {
            "name": "C#4",
            "midi": 61,
            "time": 24.964260749999983,
            "velocity": 0.7874015748031497,
            "duration": 0.0892856249999987
          },
          {
            "name": "A#3",
            "midi": 58,
            "time": 24.964260749999983,
            "velocity": 0.7874015748031497,
            "duration": 0.0892856249999987
          },
          {
            "name": "F#3",
            "midi": 54,
            "time": 24.964260749999983,
            "velocity": 0.7874015748031497,
            "duration": 0.0892856249999987
          },
          {
            "name": "D#3",
            "midi": 51,
            "time": 24.964260749999983,
            "velocity": 0.7874015748031497,
            "duration": 0.0892856249999987
          },
          {
            "name": "D#2",
            "midi": 39,
            "time": 24.964260749999983,
            "velocity": 0.7874015748031497,
            "duration": 0.0892856249999987
          },
          {
            "name": "C#4",
            "midi": 61,
            "time": 25.07140349999998,
            "velocity": 0.7874015748031497,
            "duration": 0.0892856249999987
          },
          {
            "name": "A#3",
            "midi": 58,
            "time": 25.07140349999998,
            "velocity": 0.7874015748031497,
            "duration": 0.0892856249999987
          },
          {
            "name": "F#3",
            "midi": 54,
            "time": 25.07140349999998,
            "velocity": 0.7874015748031497,
            "duration": 0.0892856249999987
          },
          {
            "name": "D#3",
            "midi": 51,
            "time": 25.07140349999998,
            "velocity": 0.7874015748031497,
            "duration": 0.0892856249999987
          },
          {
            "name": "D#2",
            "midi": 39,
            "time": 25.07140349999998,
            "velocity": 0.7874015748031497,
            "duration": 0.0892856249999987
          },
          {
            "name": "C#4",
            "midi": 61,
            "time": 25.17854624999998,
            "velocity": 0.7874015748031497,
            "duration": 0.0892856249999987
          },
          {
            "name": "A#3",
            "midi": 58,
            "time": 25.17854624999998,
            "velocity": 0.7874015748031497,
            "duration": 0.0892856249999987
          },
          {
            "name": "F#3",
            "midi": 54,
            "time": 25.17854624999998,
            "velocity": 0.7874015748031497,
            "duration": 0.0892856249999987
          },
          {
            "name": "D#3",
            "midi": 51,
            "time": 25.17854624999998,
            "velocity": 0.7874015748031497,
            "duration": 0.0892856249999987
          },
          {
            "name": "D#2",
            "midi": 39,
            "time": 25.17854624999998,
            "velocity": 0.7874015748031497,
            "duration": 0.0892856249999987
          },
          {
            "name": "C#4",
            "midi": 61,
            "time": 25.285688999999977,
            "velocity": 0.7874015748031497,
            "duration": 0.196428375
          },
          {
            "name": "D#2",
            "midi": 39,
            "time": 25.285688999999977,
            "velocity": 0.7874015748031497,
            "duration": 0.196428375
          },
          {
            "name": "A#3",
            "midi": 58,
            "time": 25.285688999999977,
            "velocity": 0.7874015748031497,
            "duration": 0.196428375
          },
          {
            "name": "F#3",
            "midi": 54,
            "time": 25.285688999999977,
            "velocity": 0.7874015748031497,
            "duration": 0.196428375
          },
          {
            "name": "D#3",
            "midi": 51,
            "time": 25.285688999999977,
            "velocity": 0.7874015748031497,
            "duration": 0.196428375
          },
          {
            "name": "D#4",
            "midi": 63,
            "time": 25.499974499999976,
            "velocity": 0.7874015748031497,
            "duration": 0.196428375
          },
          {
            "name": "D#3",
            "midi": 51,
            "time": 25.499974499999976,
            "velocity": 0.7874015748031497,
            "duration": 0.17857125000000096
          },
          {
            "name": "A#3",
            "midi": 58,
            "time": 25.499974499999976,
            "velocity": 0.7874015748031497,
            "duration": 0.17857125000000096
          },
          {
            "name": "F#3",
            "midi": 54,
            "time": 25.499974499999976,
            "velocity": 0.7874015748031497,
            "duration": 0.17857125000000096
          },
          {
            "name": "D#2",
            "midi": 39,
            "time": 25.499974499999976,
            "velocity": 0.7874015748031497,
            "duration": 0.21428549999999902
          },
          {
            "name": "G#2",
            "midi": 44,
            "time": 25.714259999999975,
            "velocity": 0.7874015748031497,
            "duration": 0.4285710000000016
          },
          {
            "name": "B3",
            "midi": 59,
            "time": 25.714259999999975,
            "velocity": 0.7874015748031497,
            "duration": 0.4285710000000016
          },
          {
            "name": "F#3",
            "midi": 54,
            "time": 25.714259999999975,
            "velocity": 0.7874015748031497,
            "duration": 0.4285710000000016
          },
          {
            "name": "D#3",
            "midi": 51,
            "time": 25.714259999999975,
            "velocity": 0.7874015748031497,
            "duration": 0.4285710000000016
          },
          {
            "name": "G#3",
            "midi": 56,
            "time": 25.714259999999975,
            "velocity": 0.7874015748031497,
            "duration": 0.4285710000000016
          },
          {
            "name": "G2",
            "midi": 43,
            "time": 26.142830999999976,
            "velocity": 0.7874015748031497,
            "duration": 0.4285710000000016
          },
          {
            "name": "A#3",
            "midi": 58,
            "time": 26.142830999999976,
            "velocity": 0.7874015748031497,
            "duration": 0.4285710000000016
          },
          {
            "name": "F3",
            "midi": 53,
            "time": 26.142830999999976,
            "velocity": 0.7874015748031497,
            "duration": 0.4285710000000016
          },
          {
            "name": "D3",
            "midi": 50,
            "time": 26.142830999999976,
            "velocity": 0.7874015748031497,
            "duration": 0.4285710000000016
          },
          {
            "name": "G3",
            "midi": 55,
            "time": 26.142830999999976,
            "velocity": 0.7874015748031497,
            "duration": 0.4285710000000016
          },
          {
            "name": "F#2",
            "midi": 42,
            "time": 26.571401999999978,
            "velocity": 0.7874015748031497,
            "duration": 0.4285710000000016
          },
          {
            "name": "A3",
            "midi": 57,
            "time": 26.571401999999978,
            "velocity": 0.7874015748031497,
            "duration": 0.4285710000000016
          },
          {
            "name": "E3",
            "midi": 52,
            "time": 26.571401999999978,
            "velocity": 0.7874015748031497,
            "duration": 0.4285710000000016
          },
          {
            "name": "C#3",
            "midi": 49,
            "time": 26.571401999999978,
            "velocity": 0.7874015748031497,
            "duration": 0.4285710000000016
          },
          {
            "name": "F#3",
            "midi": 54,
            "time": 26.571401999999978,
            "velocity": 0.7874015748031497,
            "duration": 0.4285710000000016
          },
          {
            "name": "B3",
            "midi": 59,
            "time": 26.99997299999998,
            "velocity": 0.7874015748031497,
            "duration": 0.4285710000000016
          },
          {
            "name": "G#3",
            "midi": 56,
            "time": 26.99997299999998,
            "velocity": 0.7874015748031497,
            "duration": 0.4285710000000016
          },
          {
            "name": "E3",
            "midi": 52,
            "time": 26.99997299999998,
            "velocity": 0.7874015748031497,
            "duration": 0.4285710000000016
          },
          {
            "name": "C#3",
            "midi": 49,
            "time": 26.99997299999998,
            "velocity": 0.7874015748031497,
            "duration": 0.4285710000000016
          },
          {
            "name": "C#2",
            "midi": 37,
            "time": 26.99997299999998,
            "velocity": 0.7874015748031497,
            "duration": 0.4285710000000016
          }
        ],
        "controlChanges": {},
        "id": 1,
        "name": "Steinway D #2 1",
        "channelNumber": 0,
        "isPercussion": false
      }
    ]
  }