{
  "header": {
    "PPQ": 96,
    "bpm": 140.00014000014,
    "timeSignature": [
      4,
      4
    ],
    "name": ""
  },
  "tempo": [
    {
      "absoluteTime": 0,
      "seconds": 0,
      "bpm": 140.00014000014
    }
  ],
  "timeSignature": [
    {
      "absoluteTime": 0,
      "seconds": 0,
      "numerator": 4,
      "denominator": 2,
      "click": 24,
      "notesQ": 8
    }
  ],
  "startTime": 0,
  "duration": 13.714271999999996,
  "tracks": [
    {
      "startTime": 0,
      "duration": 0,
      "length": 0,
      "notes": [],
      "controlChanges": {},
      "id": 0
    },
    {
      "startTime": 1.285713,
      "duration": 13.714271999999996,
      "length": 31,
      "notes": [
        {
          "name": "C4",
          "midi": 60,
          "time": 1.285713,
          "velocity": 0.7874015748031497,
          "duration": 0.21428550000000013
        },
        {
          "name": "C4",
          "midi": 60,
          "time": 1.4999985000000002,
          "velocity": 0.7874015748031497,
          "duration": 0.2142854999999999
        },
        {
          "name": "C4",
          "midi": 60,
          "time": 1.7142840000000001,
          "velocity": 0.7874015748031497,
          "duration": 0.4285709999999998
        },
        {
          "name": "C4",
          "midi": 60,
          "time": 2.142855,
          "velocity": 0.7874015748031497,
          "duration": 0.4285709999999998
        },
        {
          "name": "C4",
          "midi": 60,
          "time": 2.5714259999999998,
          "velocity": 0.7874015748031497,
          "duration": 0.4285709999999998
        },
        {
          "name": "C4",
          "midi": 60,
          "time": 2.9999969999999996,
          "velocity": 0.7874015748031497,
          "duration": 0.4285709999999998
        },
        {
          "name": "C4",
          "midi": 60,
          "time": 3.4285679999999994,
          "velocity": 0.7874015748031497,
          "duration": 0.4285709999999998
        },
        {
          "name": "C4",
          "midi": 60,
          "time": 3.857138999999999,
          "velocity": 0.7874015748031497,
          "duration": 0.4285709999999998
        },
        {
          "name": "C4",
          "midi": 60,
          "time": 4.285709999999999,
          "velocity": 0.7874015748031497,
          "duration": 0.4285709999999998
        },
        {
          "name": "C4",
          "midi": 60,
          "time": 4.714280999999999,
          "velocity": 0.7874015748031497,
          "duration": 0.4285709999999998
        },
        {
          "name": "C4",
          "midi": 60,
          "time": 5.142851999999999,
          "velocity": 0.7874015748031497,
          "duration": 0.4285709999999998
        },
        {
          "name": "C4",
          "midi": 60,
          "time": 5.5714229999999985,
          "velocity": 0.7874015748031497,
          "duration": 0.4285709999999998
        },
        {
          "name": "C4",
          "midi": 60,
          "time": 5.999993999999998,
          "velocity": 0.7874015748031497,
          "duration": 0.4285709999999998
        },
        {
          "name": "C4",
          "midi": 60,
          "time": 6.428564999999998,
          "velocity": 0.7874015748031497,
          "duration": 0.4285709999999998
        },
        {
          "name": "C4",
          "midi": 60,
          "time": 6.857135999999998,
          "velocity": 0.7874015748031497,
          "duration": 0.4285709999999998
        },
        {
          "name": "C4",
          "midi": 60,
          "time": 7.285706999999998,
          "velocity": 0.7874015748031497,
          "duration": 0.4285709999999998
        },
        {
          "name": "C4",
          "midi": 60,
          "time": 7.7142779999999975,
          "velocity": 0.7874015748031497,
          "duration": 0.4285710000000007
        },
        {
          "name": "C4",
          "midi": 60,
          "time": 8.142848999999998,
          "velocity": 0.7874015748031497,
          "duration": 0.4285709999999998
        },
        {
          "name": "C4",
          "midi": 60,
          "time": 8.571419999999998,
          "velocity": 0.7874015748031497,
          "duration": 0.4285709999999998
        },
        {
          "name": "C4",
          "midi": 60,
          "time": 8.999990999999998,
          "velocity": 0.7874015748031497,
          "duration": 0.4285709999999998
        },
        {
          "name": "C4",
          "midi": 60,
          "time": 9.428561999999998,
          "velocity": 0.7874015748031497,
          "duration": 0.4285709999999998
        },
        {
          "name": "C4",
          "midi": 60,
          "time": 9.857132999999997,
          "velocity": 0.7874015748031497,
          "duration": 0.4285709999999998
        },
        {
          "name": "C4",
          "midi": 60,
          "time": 10.285703999999997,
          "velocity": 0.7874015748031497,
          "duration": 0.4285709999999998
        },
        {
          "name": "C4",
          "midi": 60,
          "time": 10.714274999999997,
          "velocity": 0.7874015748031497,
          "duration": 0.4285709999999998
        },
        {
          "name": "C4",
          "midi": 60,
          "time": 11.142845999999997,
          "velocity": 0.7874015748031497,
          "duration": 0.4285709999999998
        },
        {
          "name": "C4",
          "midi": 60,
          "time": 11.571416999999997,
          "velocity": 0.7874015748031497,
          "duration": 0.4285709999999998
        },
        {
          "name": "C4",
          "midi": 60,
          "time": 11.999987999999997,
          "velocity": 0.7874015748031497,
          "duration": 0.4285709999999998
        },
        {
          "name": "C4",
          "midi": 60,
          "time": 12.428558999999996,
          "velocity": 0.7874015748031497,
          "duration": 0.4285709999999998
        },
        {
          "name": "C4",
          "midi": 60,
          "time": 12.857129999999996,
          "velocity": 0.7874015748031497,
          "duration": 0.4285709999999998
        },
        {
          "name": "C4",
          "midi": 60,
          "time": 13.285700999999996,
          "velocity": 0.7874015748031497,
          "duration": 0.4285709999999998
        },
        {
          "name": "C4",
          "midi": 60,
          "time": 13.714271999999996,
          "velocity": 0.7874015748031497,
          "duration": 0
        }
      ],
      "controlChanges": {},
      "id": 1,
      "name": "sd 1",
      "channelNumber": 0,
      "isPercussion": false
    }
  ]
}