
{
    "header": {
      "PPQ": 96,
      "bpm": 140.00014000014,
      "timeSignature": [
        4,
        4
      ],
      "name": ""
    },
    "tempo": [
      {
        "absoluteTime": 0,
        "seconds": 0,
        "bpm": 140.00014000014
      }
    ],
    "timeSignature": [
      {
        "absoluteTime": 0,
        "seconds": 0,
        "numerator": 4,
        "denominator": 2,
        "click": 24,
        "notesQ": 8
      }
    ],
    "startTime": 0,
    "duration": 15.428556,
    "tracks": [
      {
        "startTime": 0,
        "duration": 0,
        "length": 0,
        "notes": [],
        "controlChanges": {},
        "id": 0
      },
      {
        "startTime": 0.21428550000000002,
        "duration": 15.428556,
        "length": 100,
        "notes": [
          {
            "name": "F5",
            "midi": 77,
            "time": 0.21428550000000002,
            "velocity": 0.7559055118110236,
            "duration": 0.02678568749999999
          },
          {
            "name": "F#5",
            "midi": 78,
            "time": 0.2410711875,
            "velocity": 0.7874015748031497,
            "duration": 0.18749981250000003
          },
          {
            "name": "D#5",
            "midi": 75,
            "time": 0.42857100000000004,
            "velocity": 0.7874015748031497,
            "duration": 0.10714274999999995
          },
          {
            "name": "B4",
            "midi": 71,
            "time": 0.53571375,
            "velocity": 0.7559055118110236,
            "duration": 0.10714274999999995
          },
          {
            "name": "C#5",
            "midi": 73,
            "time": 0.7499992499999999,
            "velocity": 0.7874015748031497,
            "duration": 0.10714274999999995
          },
          {
            "name": "B4",
            "midi": 71,
            "time": 0.9642847499999998,
            "velocity": 0.7874015748031497,
            "duration": 0.10714274999999995
          },
          {
            "name": "C#5",
            "midi": 73,
            "time": 1.0714274999999998,
            "velocity": 0.7874015748031497,
            "duration": 0.03571425000000006
          },
          {
            "name": "D#5",
            "midi": 75,
            "time": 1.17857025,
            "velocity": 0.7874015748031497,
            "duration": 0.04910709375
          },
          {
            "name": "C#5",
            "midi": 73,
            "time": 1.2857129999999999,
            "velocity": 0.7874015748031497,
            "duration": 0.05357137499999998
          },
          {
            "name": "C#5",
            "midi": 73,
            "time": 1.2857129999999999,
            "velocity": 0.7874015748031497,
            "duration": 0.05357137499999998
          },
          {
            "name": "D#5",
            "midi": 75,
            "time": 1.3392843749999999,
            "velocity": 0.7874015748031497,
            "duration": 0.05357137499999998
          },
          {
            "name": "C#5",
            "midi": 73,
            "time": 1.3928557499999998,
            "velocity": 0.7874015748031497,
            "duration": 0.05357137499999998
          },
          {
            "name": "G#4",
            "midi": 68,
            "time": 1.4999984999999998,
            "velocity": 0.7874015748031497,
            "duration": 0.10714274999999995
          },
          {
            "name": "B4",
            "midi": 71,
            "time": 1.6071412499999997,
            "velocity": 0.7874015748031497,
            "duration": 0.10714274999999995
          },
          {
            "name": "G#4",
            "midi": 68,
            "time": 1.7142839999999997,
            "velocity": 0.7874015748031497,
            "duration": 0.2142854999999999
          },
          {
            "name": "F#5",
            "midi": 78,
            "time": 1.9285694999999996,
            "velocity": 0.7874015748031497,
            "duration": 0.2142854999999999
          },
          {
            "name": "D#5",
            "midi": 75,
            "time": 2.1428549999999995,
            "velocity": 0.7874015748031497,
            "duration": 0.10714274999999995
          },
          {
            "name": "B4",
            "midi": 71,
            "time": 2.2499977499999995,
            "velocity": 0.7874015748031497,
            "duration": 0.10714274999999995
          },
          {
            "name": "A#5",
            "midi": 82,
            "time": 2.4642832499999994,
            "velocity": 0.7559055118110236,
            "duration": 0.026785687499999877
          },
          {
            "name": "B5",
            "midi": 83,
            "time": 2.4910689374999992,
            "velocity": 0.7874015748031497,
            "duration": 0.18749981250000003
          },
          {
            "name": "A#5",
            "midi": 82,
            "time": 2.6785687499999993,
            "velocity": 0.7874015748031497,
            "duration": 0.04910709375
          },
          {
            "name": "G#5",
            "midi": 80,
            "time": 2.7857114999999992,
            "velocity": 0.7874015748031497,
            "duration": 0.04910709375
          },
          {
            "name": "D#5",
            "midi": 75,
            "time": 2.892854249999999,
            "velocity": 0.7874015748031497,
            "duration": 0.04910709375
          },
          {
            "name": "C#5",
            "midi": 73,
            "time": 2.999996999999999,
            "velocity": 0.7874015748031497,
            "duration": 0.2142854999999999
          },
          {
            "name": "D#5",
            "midi": 75,
            "time": 3.214282499999999,
            "velocity": 0.7874015748031497,
            "duration": 0.2142854999999999
          },
          {
            "name": "F5",
            "midi": 77,
            "time": 3.642853499999999,
            "velocity": 0.7559055118110236,
            "duration": 0.026785687499999877
          },
          {
            "name": "F#5",
            "midi": 78,
            "time": 3.6696391874999987,
            "velocity": 0.7874015748031497,
            "duration": 0.18749981250000003
          },
          {
            "name": "D#5",
            "midi": 75,
            "time": 3.8571389999999988,
            "velocity": 0.7874015748031497,
            "duration": 0.10714274999999995
          },
          {
            "name": "C#5",
            "midi": 73,
            "time": 3.9642817499999987,
            "velocity": 0.7559055118110236,
            "duration": 0.1071427500000004
          },
          {
            "name": "B4",
            "midi": 71,
            "time": 4.071424499999999,
            "velocity": 0.7559055118110236,
            "duration": 0.1071427500000004
          },
          {
            "name": "C#5",
            "midi": 73,
            "time": 4.1785672499999995,
            "velocity": 0.7874015748031497,
            "duration": 0.1071427500000004
          },
          {
            "name": "B4",
            "midi": 71,
            "time": 4.39285275,
            "velocity": 0.7874015748031497,
            "duration": 0.1071427500000004
          },
          {
            "name": "C#5",
            "midi": 73,
            "time": 4.499995500000001,
            "velocity": 0.7874015748031497,
            "duration": 0.1071427500000004
          },
          {
            "name": "D5",
            "midi": 74,
            "time": 4.607138250000001,
            "velocity": 0.7874015748031497,
            "duration": 0.053571374999999755
          },
          {
            "name": "C#5",
            "midi": 73,
            "time": 4.714281000000001,
            "velocity": 0.7874015748031497,
            "duration": 0.03124996875000008
          },
          {
            "name": "D#5",
            "midi": 75,
            "time": 4.745530968750001,
            "velocity": 0.7874015748031497,
            "duration": 0.07589278125000032
          },
          {
            "name": "C#5",
            "midi": 73,
            "time": 4.821423750000001,
            "velocity": 0.7874015748031497,
            "duration": 0.1071427500000004
          },
          {
            "name": "B4",
            "midi": 71,
            "time": 4.928566500000001,
            "velocity": 0.7874015748031497,
            "duration": 0.1071427500000004
          },
          {
            "name": "F#5",
            "midi": 78,
            "time": 5.035709250000002,
            "velocity": 0.7874015748031497,
            "duration": 0.1071427500000004
          },
          {
            "name": "A5",
            "midi": 81,
            "time": 5.142852000000002,
            "velocity": 0.7874015748031497,
            "duration": 0.02678568750000032
          },
          {
            "name": "A#5",
            "midi": 82,
            "time": 5.1696376875000025,
            "velocity": 0.7874015748031497,
            "duration": 0.18749981249999959
          },
          {
            "name": "B5",
            "midi": 83,
            "time": 5.357137500000002,
            "velocity": 0.7874015748031497,
            "duration": 0.07142849999999967
          },
          {
            "name": "A#5",
            "midi": 82,
            "time": 5.464280250000002,
            "velocity": 0.7874015748031497,
            "duration": 0.04910709375
          },
          {
            "name": "F#5",
            "midi": 78,
            "time": 5.6785657500000015,
            "velocity": 0.7874015748031497,
            "duration": 0.08482134374999983
          },
          {
            "name": "D#5",
            "midi": 75,
            "time": 5.785708500000001,
            "velocity": 0.7874015748031497,
            "duration": 0.08482134374999983
          },
          {
            "name": "C#5",
            "midi": 73,
            "time": 5.8928512500000005,
            "velocity": 0.7874015748031497,
            "duration": 0.19196409375000023
          },
          {
            "name": "D#5",
            "midi": 75,
            "time": 6.1071367500000004,
            "velocity": 0.7874015748031497,
            "duration": 0.08482134374999983
          },
          {
            "name": "C#5",
            "midi": 73,
            "time": 6.2142795,
            "velocity": 0.7874015748031497,
            "duration": 0.08482134374999983
          },
          {
            "name": "B4",
            "midi": 71,
            "time": 6.3214222499999995,
            "velocity": 0.7874015748031497,
            "duration": 0.08482134374999983
          },
          {
            "name": "C#5",
            "midi": 73,
            "time": 6.428564999999999,
            "velocity": 0.7874015748031497,
            "duration": 0.19196409375000023
          },
          {
            "name": "D#5",
            "midi": 75,
            "time": 6.642850499999999,
            "velocity": 0.7874015748031497,
            "duration": 0.19196409375000023
          },
          {
            "name": "F5",
            "midi": 77,
            "time": 7.0714215,
            "velocity": 0.7559055118110236,
            "duration": 0.02678568750000032
          },
          {
            "name": "F#5",
            "midi": 78,
            "time": 7.0982071875,
            "velocity": 0.7874015748031497,
            "duration": 0.18749981250000047
          },
          {
            "name": "D#5",
            "midi": 75,
            "time": 7.285707,
            "velocity": 0.7874015748031497,
            "duration": 0.1071427500000004
          },
          {
            "name": "B4",
            "midi": 71,
            "time": 7.392849750000001,
            "velocity": 0.7559055118110236,
            "duration": 0.1071427500000004
          },
          {
            "name": "C#5",
            "midi": 73,
            "time": 7.607135250000002,
            "velocity": 0.7874015748031497,
            "duration": 0.1071427500000004
          },
          {
            "name": "B4",
            "midi": 71,
            "time": 7.821420750000002,
            "velocity": 0.7874015748031497,
            "duration": 0.1071427500000004
          },
          {
            "name": "C#5",
            "midi": 73,
            "time": 7.928563500000003,
            "velocity": 0.7874015748031497,
            "duration": 0.035714249999999836
          },
          {
            "name": "D#5",
            "midi": 75,
            "time": 8.035706250000002,
            "velocity": 0.7874015748031497,
            "duration": 0.049107093750000885
          },
          {
            "name": "C#5",
            "midi": 73,
            "time": 8.142849000000004,
            "velocity": 0.7874015748031497,
            "duration": 0.05357137500000064
          },
          {
            "name": "C#5",
            "midi": 73,
            "time": 8.142849000000004,
            "velocity": 0.7874015748031497,
            "duration": 0.05357137500000064
          },
          {
            "name": "D#5",
            "midi": 75,
            "time": 8.196420375000004,
            "velocity": 0.7874015748031497,
            "duration": 0.05357137500000064
          },
          {
            "name": "C#5",
            "midi": 73,
            "time": 8.249991750000005,
            "velocity": 0.7874015748031497,
            "duration": 0.05357137500000064
          },
          {
            "name": "G#4",
            "midi": 68,
            "time": 8.357134500000006,
            "velocity": 0.7874015748031497,
            "duration": 0.10714274999999951
          },
          {
            "name": "B4",
            "midi": 71,
            "time": 8.464277250000006,
            "velocity": 0.7874015748031497,
            "duration": 0.10714274999999951
          },
          {
            "name": "G#4",
            "midi": 68,
            "time": 8.571420000000005,
            "velocity": 0.7874015748031497,
            "duration": 0.2142855000000008
          },
          {
            "name": "F#5",
            "midi": 78,
            "time": 8.785705500000006,
            "velocity": 0.7874015748031497,
            "duration": 0.2142855000000008
          },
          {
            "name": "D#5",
            "midi": 75,
            "time": 8.999991000000007,
            "velocity": 0.7874015748031497,
            "duration": 0.10714274999999951
          },
          {
            "name": "B4",
            "midi": 71,
            "time": 9.107133750000006,
            "velocity": 0.7874015748031497,
            "duration": 0.10714274999999951
          },
          {
            "name": "A#5",
            "midi": 82,
            "time": 9.321419250000005,
            "velocity": 0.7559055118110236,
            "duration": 0.02678568750000032
          },
          {
            "name": "B5",
            "midi": 83,
            "time": 9.348204937500006,
            "velocity": 0.7874015748031497,
            "duration": 0.18749981250000047
          },
          {
            "name": "A#5",
            "midi": 82,
            "time": 9.535704750000006,
            "velocity": 0.7874015748031497,
            "duration": 0.049107093750000885
          },
          {
            "name": "G#5",
            "midi": 80,
            "time": 9.642847500000007,
            "velocity": 0.7874015748031497,
            "duration": 0.049107093750000885
          },
          {
            "name": "A#5",
            "midi": 82,
            "time": 9.749990250000009,
            "velocity": 0.7874015748031497,
            "duration": 0.049107093750000885
          },
          {
            "name": "B5",
            "midi": 83,
            "time": 9.85713300000001,
            "velocity": 0.7874015748031497,
            "duration": 0.2142855000000008
          },
          {
            "name": "C#6",
            "midi": 85,
            "time": 10.07141850000001,
            "velocity": 0.7874015748031497,
            "duration": 0.1383927187499996
          },
          {
            "name": "C#6",
            "midi": 85,
            "time": 10.28570400000001,
            "velocity": 0.7874015748031497,
            "duration": 0.035714249999999836
          },
          {
            "name": "D#6",
            "midi": 87,
            "time": 10.32141825000001,
            "velocity": 0.7874015748031497,
            "duration": 0.07142849999999967
          },
          {
            "name": "C#6",
            "midi": 85,
            "time": 10.39284675000001,
            "velocity": 0.7874015748031497,
            "duration": 0.10714274999999951
          },
          {
            "name": "B5",
            "midi": 83,
            "time": 10.499989500000009,
            "velocity": 0.7874015748031497,
            "duration": 0.04464281249999935
          },
          {
            "name": "C#6",
            "midi": 85,
            "time": 10.607132250000008,
            "velocity": 0.7874015748031497,
            "duration": 0.10267846874999975
          },
          {
            "name": "B5",
            "midi": 83,
            "time": 10.821417750000007,
            "velocity": 0.7874015748031497,
            "duration": 0.10714274999999951
          },
          {
            "name": "C#6",
            "midi": 85,
            "time": 11.035703250000006,
            "velocity": 0.7874015748031497,
            "duration": 0.035714249999999836
          },
          {
            "name": "D#6",
            "midi": 87,
            "time": 11.071417500000006,
            "velocity": 0.7874015748031497,
            "duration": 0.17857124999999918
          },
          {
            "name": "C#6",
            "midi": 85,
            "time": 11.249988750000005,
            "velocity": 0.7874015748031497,
            "duration": 0.10714274999999951
          },
          {
            "name": "B5",
            "midi": 83,
            "time": 11.357131500000005,
            "velocity": 0.7874015748031497,
            "duration": 0.03124996875000008
          },
          {
            "name": "B5",
            "midi": 83,
            "time": 11.464274250000004,
            "velocity": 0.7874015748031497,
            "duration": 0.03124996875000008
          },
          {
            "name": "C#6",
            "midi": 85,
            "time": 11.571417000000004,
            "velocity": 0.7874015748031497,
            "duration": 0.10714274999999951
          },
          {
            "name": "D#6",
            "midi": 87,
            "time": 11.678559750000003,
            "velocity": 0.7874015748031497,
            "duration": 0.10714274999999951
          },
          {
            "name": "C#6",
            "midi": 85,
            "time": 11.785702500000003,
            "velocity": 0.7874015748031497,
            "duration": 0.10714274999999951
          },
          {
            "name": "F6",
            "midi": 89,
            "time": 11.892845250000002,
            "velocity": 0.7874015748031497,
            "duration": 0.0580356562500004
          },
          {
            "name": "F#6",
            "midi": 90,
            "time": 11.950880906250003,
            "velocity": 0.7874015748031497,
            "duration": 0.4598209687499999
          },
          {
            "name": "D#6",
            "midi": 87,
            "time": 12.428559000000003,
            "velocity": 0.7874015748031497,
            "duration": 0.3214282500000003
          },
          {
            "name": "C#6",
            "midi": 85,
            "time": 12.857130000000003,
            "velocity": 0.7874015748031497,
            "duration": 0.10714274999999951
          },
          {
            "name": "B5",
            "midi": 83,
            "time": 12.964272750000003,
            "velocity": 0.7874015748031497,
            "duration": 0.10714274999999951
          },
          {
            "name": "A#5",
            "midi": 82,
            "time": 13.071415500000002,
            "velocity": 0.7874015748031497,
            "duration": 0.10714274999999951
          },
          {
            "name": "F#5",
            "midi": 78,
            "time": 13.178558250000002,
            "velocity": 0.7874015748031497,
            "duration": 0.10714274999999951
          },
          {
            "name": "C#6",
            "midi": 85,
            "time": 13.285701000000001,
            "velocity": 0.7874015748031497,
            "duration": 0.2142855000000008
          },
          {
            "name": "D#6",
            "midi": 87,
            "time": 13.499986500000002,
            "velocity": 0.7874015748031497,
            "duration": 0.10714274999999951
          },
          {
            "name": "G#5",
            "midi": 80,
            "time": 13.714272000000001,
            "velocity": 0.7874015748031497,
            "duration": 1.7142839999999993
          }
        ],
        "controlChanges": {},
        "id": 1,
        "name": "Steinway D 1",
        "channelNumber": 0,
        "isPercussion": false
      }
    ]
  }